<svg width="30" height="30" viewBox="0 0 30 30" fill="none" xmlns="http://www.w3.org/2000/svg">
<path d="M18.8403 28.3055C18.974 25.6709 17.2299 23.3562 16.3963 20.8534C16.0533 19.8234 16.0237 18.9245 16.1129 17.8605C16.1661 17.225 16.359 16.0794 16.099 15.4727C15.933 15.0855 17.15 17.3535 18.3118 17.6855C19.4737 18.0176 22.1841 17.8515 22.8478 18.2939C23.5116 18.7365 24.6181 20.7833 25.503 20.7833C26.388 20.7833 28.6009 19.7875 28.4349 18.5705C28.2688 17.3535 26.8306 15.03 26.388 14.3662C25.9454 13.7024 24.5626 11.6556 24.286 10.8812C24.0094 10.1068 23.6777 8.28119 23.3456 7.61739C23.0136 6.95359 21.8248 6.26181 21.8248 6.26181L21.5203 1.14514C21.5203 1.14514 18.533 3.35799 18.2564 3.96636C17.9798 4.57473 17.7586 6.28979 17.7586 6.28979C17.0207 6.16209 16.1984 6.16209 15.5618 6.30474C14.2424 6.60036 13.1427 7.25465 12.0597 8.02496C9.38926 9.92452 7.04138 12.2781 5.15649 14.9594C3.47512 17.3513 2.1679 19.9826 0.9104 22.622" stroke="#201F1F" stroke-width="0.407572" stroke-miterlimit="10"/>
<path d="M15.6045 12.4363C15.6045 12.4363 15.4078 13.4767 15.6045 14.1513C15.8012 14.826 16.0993 15.4732 16.0993 15.4732" stroke="#201F1F" stroke-width="0.407572" stroke-miterlimit="10"/>
<path d="M20.3338 3.97174C20.3338 3.97174 19.0796 4.51626 19.0796 6.5351" stroke="#201F1F" stroke-width="0.407572" stroke-miterlimit="10"/>
<path d="M26.3874 14.3666C25.3076 15.2741 23.2754 17.0259 22.8469 18.2942" stroke="#201F1F" stroke-width="0.407572" stroke-miterlimit="10"/>
<path d="M14.7627 6.53485C14.9081 7.79262 16.8544 11.655 17.9491 12.7802C19.0438 13.9054 23.2804 17.4812 23.2804 17.4812" stroke="#201F1F" stroke-width="0.407572" stroke-miterlimit="10"/>
<path d="M23.1935 7.38068C21.8417 7.58066 19.0767 8.28766 17.6519 12.437" stroke="#201F1F" stroke-width="0.407572" stroke-miterlimit="10"/>
<path d="M20.335 14.951C20.4027 16.5691 21.3752 25.4052 17.8238 27.0116C14.2725 28.6183 9.32596 28.1955 8.18449 24.0945C7.04301 19.9935 7.8549 11.673 7.8549 11.673" stroke="#201F1F" stroke-width="0.407572" stroke-miterlimit="10"/>
</svg>
