<svg width="30" height="31" viewBox="0 0 30 31" fill="none" xmlns="http://www.w3.org/2000/svg">
<g clip-path="url(#clip0_872_17914)">
<path d="M5.94674 17.7834L3.52368 18.904L4.03868 19.9942L6.1284 19.3584L17.5156 18.1773L17.3945 16.6023L5.94674 17.7834Z" stroke="#FEFEFE" stroke-width="0.447243" stroke-miterlimit="10"/>
<path d="M6.12698 19.3589L5.94531 17.7839" stroke="#FEFEFE" stroke-width="0.447243" stroke-miterlimit="10"/>
<path d="M5.63996 17.9251L2.5294 10.4026L0.810791 11.3001L4.08218 18.6454" stroke="#FEFEFE" stroke-width="0.447243" stroke-miterlimit="10"/>
<path d="M4.35352 19.8989L6.26213 26.5289C6.26213 26.5289 6.3749 27.7212 7.48657 27.7373C8.59824 27.7534 8.14713 25.9328 8.14713 25.9328L7.51879 26.0134L5.94602 19.5042" stroke="#FEFEFE" stroke-width="0.447243" stroke-miterlimit="10"/>
<path d="M6.26245 26.5284L7.51912 26.0128" stroke="#FEFEFE" stroke-width="0.447243" stroke-miterlimit="10"/>
<path d="M8.33681 26.1915L15.2026 27.5437L17.5157 18.1771L19.589 18.5707L17.1965 28.0812C17.1965 28.0812 17.0626 28.9521 16.3643 29.1562C15.666 29.3604 14.9076 29.104 14.7346 28.8962L8.04736 27.4785" stroke="#FEFEFE" stroke-width="0.447243" stroke-miterlimit="10"/>
<path d="M14.7354 28.8956L15.2034 27.5433L17.1801 28.1639" stroke="#FEFEFE" stroke-width="0.447243" stroke-miterlimit="10"/>
<path d="M18.2986 16.402L22.023 10.0087L23.943 11.1223L19.6808 17.477L18.2986 16.402Z" stroke="#FEFEFE" stroke-width="0.447243" stroke-miterlimit="10"/>
<path d="M22.7188 9.31422L27.591 0.908386L29.3571 2.0795L24.2096 10.1637L22.7188 9.31422Z" stroke="#FEFEFE" stroke-width="0.447243" stroke-miterlimit="10"/>
<path d="M23.9752 7.14398L23.2694 6.93536L21.6658 9.55953L22.0219 10.0079" stroke="#FEFEFE" stroke-width="0.447243" stroke-miterlimit="10"/>
<path d="M25.5775 8.01489L26.0381 8.61184L24.5414 11.1838L23.9434 11.1213" stroke="#FEFEFE" stroke-width="0.447243" stroke-miterlimit="10"/>
<path d="M24.8862 6.75507L24.2656 7.75895L24.839 8.11618L25.4692 7.11673L24.8862 6.75507Z" stroke="#FEFEFE" stroke-width="0.268346" stroke-miterlimit="10"/>
<path d="M16.6306 16.5977C16.6306 16.5977 17.117 15.1455 18.7764 15.578" stroke="#FEFEFE" stroke-width="0.447243" stroke-miterlimit="10"/>
<path d="M17.3938 16.7943C17.3938 16.7943 17.6655 16.1382 18.3652 16.284" stroke="#FEFEFE" stroke-width="0.447243" stroke-miterlimit="10"/>
<path d="M16.6306 18.2689C16.6306 18.2689 16.6306 18.9311 17.2503 19.0703" stroke="#FEFEFE" stroke-width="0.447243" stroke-miterlimit="10"/>
<path d="M20.4596 16.3118C21.0882 16.4916 21.8146 19.0163 19.3638 19.4618" stroke="#FEFEFE" stroke-width="0.447243" stroke-miterlimit="10"/>
<path d="M19.5884 18.5704C19.5884 18.5704 20.5862 18.1156 19.9848 17.0206" stroke="#FEFEFE" stroke-width="0.447243" stroke-miterlimit="10"/>
</g>
<defs>
<clipPath id="clip0_872_17914">
<rect width="30" height="30" fill="white" transform="translate(0 0.345215)"/>
</clipPath>
</defs>
</svg>
