<svg width="30" height="31" viewBox="0 0 30 31" fill="none" xmlns="http://www.w3.org/2000/svg">
<path d="M7.72446 4.55035C7.72446 4.55035 8.68446 6.05063 8.56446 8.0309C8.44446 10.0112 6.22418 19.3723 6.52418 22.0126C6.82418 24.6528 9.16446 27.2331 11.4447 27.3531C13.725 27.4731 16.6653 26.0928 17.2656 26.0928C17.8659 26.0928 22.7864 26.2128 23.8664 25.9728C24.9464 25.7328 28.067 24.5926 28.487 23.2126C28.907 21.8326 27.407 13.6115 27.407 12.8912C27.407 12.1709 27.407 7.19035 25.7267 6.29035C24.0464 5.39035 18.8859 6.53035 17.0856 6.35035C15.2853 6.17035 13.0061 5.37313 9.50141 3.92896C8.93557 3.6959 7.72418 4.55007 7.72418 4.55007L7.72446 4.55035Z" stroke="#201F1F" stroke-width="0.417426" stroke-miterlimit="10"/>
<path d="M9.00958 4.91101C9.00958 4.91101 9.6818 7.2124 9.57458 8.9824C9.46735 10.7524 7.48291 19.1182 7.75124 21.478C8.0193 23.8377 10.111 26.1438 12.1487 26.251C14.1865 26.3582 16.8146 25.1249 17.3507 25.1249C17.8868 25.1249 22.2846 25.2321 23.2499 25.0177C24.2151 24.8032 27.004 23.7843 27.3793 22.5507C27.7546 21.3174 26.414 13.9702 26.414 13.3266C26.414 12.683 26.414 8.23184 24.9124 7.4274C23.4107 6.62296 18.7987 7.64184 17.1899 7.48101C15.581 7.32018 13.544 6.60768 10.4118 5.31712C9.90624 5.10879 9.00958 4.91157 9.00958 4.91157V4.91101Z" stroke="#201F1F" stroke-width="0.417426" stroke-miterlimit="10"/>
<path d="M7.18087 24.1056C5.96643 24.0678 2.49726 23.5878 1.89476 22.157C1.18615 20.4739 1.4431 17.6392 2.45948 14.7778C3.47587 11.9164 5.69726 8.00087 6.22448 7.17281C6.75171 6.34476 7.72559 4.55115 7.72559 4.55115" stroke="#201F1F" stroke-width="0.417426" stroke-miterlimit="10"/>
</svg>
