<svg width="30" height="31" viewBox="0 0 30 31" fill="none" xmlns="http://www.w3.org/2000/svg">
<path d="M15.1571 1.5329L14.9313 2.47401C14.9313 2.47401 14.2535 2.47401 14.1782 3.03873C14.103 3.60345 14.1782 4.43206 14.1782 4.43206C14.1782 4.43206 12.0305 15.6365 11.5424 16.8207C11.4424 17.0632 11.4991 17.5021 11.3838 17.7418C11.1257 18.2785 10.8866 18.1393 10.7893 18.2893C10.6038 18.5754 10.4127 19.4565 11.693 20.1721L7.24962 27.3965C7.24962 27.3965 7.13656 29.1718 8.19101 29.1718H14.9313C14.9313 29.1718 16.8893 26.4607 16.8518 26.1218C16.8141 25.7829 15.1574 22.7285 15.1574 22.7285L15.7599 21.6785C15.7599 21.6785 16.061 21.829 16.3246 21.6785C16.5882 21.5279 17.3413 20.6618 17.3413 20.6618L17.9816 20.7371C17.9816 20.7371 19.1113 18.6415 19.036 18.0701C18.9607 17.4987 18.5466 17.0468 18.5466 17.0468L18.7724 16.1432L19.2243 15.8421C19.2243 15.8421 19.7516 13.0557 19.601 12.7543C19.4505 12.4529 19.3732 12.2865 19.3732 12.2865C19.3732 12.2865 19.5796 12.1896 19.628 11.7376C19.6763 11.2857 20.0905 9.47818 20.0527 9.25234C20.0149 9.02651 19.676 8.61206 19.676 8.61206C19.676 8.61206 20.0196 8.49901 20.0549 8.2354C20.0902 7.97179 20.2785 5.52429 20.316 5.33595C20.3535 5.14762 20.0902 4.92179 20.0902 4.92179C20.128 4.62068 20.5485 3.64151 20.3193 3.52845C20.0902 3.4154 19.9018 3.26484 19.9018 3.26484L20.0524 1.5329" stroke="#FEFEFE" stroke-width="0.506875" stroke-miterlimit="10"/>
<path d="M14.9317 2.47437C14.5395 2.56381 17.7248 2.16853 19.9023 3.2652" stroke="#FEFEFE" stroke-width="0.506875" stroke-miterlimit="10"/>
<path d="M14.1786 4.43211C13.8036 4.46044 17.9113 4.19572 20.0905 4.92155" stroke="#FEFEFE" stroke-width="0.506875" stroke-miterlimit="10"/>
<path d="M11.6928 20.172C10.9433 20.0229 14.4992 20.7482 15.7597 21.6782" stroke="#FEFEFE" stroke-width="0.506875" stroke-miterlimit="10"/>
<path d="M12.2709 18.8557C12.2709 18.8557 11.7029 18.3795 11.3845 17.7418" stroke="#FEFEFE" stroke-width="0.506875" stroke-miterlimit="10"/>
<path d="M13.9229 5.76062C13.9229 5.76062 14.884 5.84562 15.0876 6.02395C15.2912 6.20229 13.5337 16.5709 13.2534 16.7237C12.9731 16.8765 11.4854 17.1023 11.4854 17.1023" stroke="#FEFEFE" stroke-width="0.506875" stroke-miterlimit="10"/>
<path d="M20.2816 5.64132C18.9577 5.48854 16.7669 5.15743 16.5122 5.36104C16.2575 5.56493 16.0027 7.70465 16.2575 7.88299C16.5122 8.06132 19.6758 8.61104 19.6758 8.61104C19.6758 8.61104 16.348 8.21438 16.0097 8.44354C15.6713 8.67271 14.9902 11.081 15.3563 11.4308C15.7225 11.7805 19.3727 12.2852 19.3727 12.2852C19.3727 12.2852 16.6397 12.1019 16.4102 12.2852C16.1811 12.4685 15.8497 14.7863 16.13 15.0669C16.4102 15.3474 18.7719 16.1422 18.7719 16.1422" stroke="#FEFEFE" stroke-width="0.506875" stroke-miterlimit="10"/>
<path d="M18.5488 17.0465C17.9394 16.9559 16.4649 16.2987 16.0124 16.5026C15.5599 16.7065 14.7894 19.0859 14.9707 19.3123C15.1521 19.539 17.5313 20.5812 17.5313 20.5812" stroke="#FEFEFE" stroke-width="0.506875" stroke-miterlimit="10"/>
<path d="M9.5166 23.715L16.8544 26.1219" stroke="#FEFEFE" stroke-width="0.447243" stroke-miterlimit="10"/>
</svg>
