<svg width="30" height="31" viewBox="0 0 30 31" fill="none" xmlns="http://www.w3.org/2000/svg">
<g clip-path="url(#clip0_872_17797)">
<path d="M23.6466 25.1779C23.6466 22.6782 24.3683 13.4821 16.8877 11.7863" stroke="#201F1F" stroke-width="0.447243" stroke-miterlimit="10"/>
<path d="M12.9355 0.845825L13.1647 16.405H16.8872V0.845825" stroke="#201F1F" stroke-width="0.447243" stroke-miterlimit="10"/>
<path d="M24.6843 25.272H5.31128V28.8875H24.6843V25.272Z" stroke="#201F1F" stroke-width="0.447243" stroke-miterlimit="10"/>
<path d="M6.33968 25.2718C6.33968 22.7721 5.61801 13.576 13.0986 11.8801" stroke="#201F1F" stroke-width="0.447243" stroke-miterlimit="10"/>
<path d="M9.49687 25.4515C9.49687 23.5685 9.11243 16.6407 13.0974 15.3629" stroke="#201F1F" stroke-width="0.447243" stroke-miterlimit="10"/>
<path d="M20.4883 25.3617C20.4883 23.4786 20.8727 16.5508 16.8877 15.2731" stroke="#201F1F" stroke-width="0.447243" stroke-miterlimit="10"/>
<path d="M8.30277 26.7303H6.85693V27.3845H8.30277V26.7303Z" fill="#201F1F" stroke="#201F1F" stroke-width="0.447243" stroke-miterlimit="10"/>
<path d="M15.3572 14.1661V13.1744H14.703V14.1661H15.3572Z" fill="#201F1F" stroke="#201F1F" stroke-width="0.447243" stroke-miterlimit="10"/>
<path d="M15.3572 11.3717V10.38H14.703V11.3717H15.3572Z" fill="#201F1F" stroke="#201F1F" stroke-width="0.447243" stroke-miterlimit="10"/>
<path d="M15.3572 8.57931V7.58765H14.703V8.57931H15.3572Z" fill="#201F1F" stroke="#201F1F" stroke-width="0.447243" stroke-miterlimit="10"/>
<path d="M15.3572 5.78622V4.79456H14.703V5.78622H15.3572Z" fill="#201F1F" stroke="#201F1F" stroke-width="0.447243" stroke-miterlimit="10"/>
<path d="M23.1402 26.7303H21.6943V27.3845H23.1402V26.7303Z" fill="#201F1F" stroke="#201F1F" stroke-width="0.447243" stroke-miterlimit="10"/>
</g>
<defs>
<clipPath id="clip0_872_17797">
<rect width="30" height="30" fill="white" transform="translate(0 0.345215)"/>
</clipPath>
</defs>
</svg>
