<svg width="30" height="28" viewBox="0 0 30 28" fill="none" xmlns="http://www.w3.org/2000/svg">
<path d="M14.5177 25.5453C14.1155 24.3428 14.0811 23.2936 14.1856 22.0515C14.2481 21.3099 14.4743 19.9724 14.1692 19.2642C13.9747 18.8121 15.4016 21.4598 16.7638 21.8472C18.1261 22.2347 21.3041 22.041 22.0827 22.5577C22.8609 23.0744 24.1582 25.4635 25.196 25.4635C26.2338 25.4635 28.8284 24.3013 28.6339 22.8804C28.4393 21.4598 26.7529 18.7477 26.2338 17.9726C25.7148 17.1978 24.0933 14.8085 23.7691 13.9043C23.4449 13.0002 23.0555 10.8692 22.6664 10.0944C22.2772 9.31956 20.8831 8.51187 20.8831 8.51187L20.5259 2.53912C20.5259 2.53912 17.0234 5.1222 16.6989 5.83235C16.3747 6.54278 16.1152 8.54447 16.1152 8.54447C15.2499 8.3956 14.2858 8.3956 13.5391 8.56213C11.9921 8.90716 10.7028 9.67083 9.43274 10.5701C6.30137 12.7875 3.54849 15.5349 1.33838 18.6649" stroke="#FEFEFE" stroke-width="0.436619" stroke-miterlimit="10"/>
<path d="M13.5872 15.7186C13.5872 15.7186 13.3564 16.9329 13.5872 17.7205C13.8181 18.5081 14.1674 19.2636 14.1674 19.2636" stroke="#FEFEFE" stroke-width="0.436619" stroke-miterlimit="10"/>
<path d="M19.1322 5.83893C19.1322 5.83893 17.6614 6.47464 17.6614 8.83114" stroke="#FEFEFE" stroke-width="0.436619" stroke-miterlimit="10"/>
<path d="M22.0811 22.5572C23.6177 21.3684 25.4523 19.7623 26.2322 17.9725" stroke="#FEFEFE" stroke-width="0.436619" stroke-miterlimit="10"/>
<path d="M22.7764 23.5394C24.313 22.3505 26.1476 20.7444 26.9275 18.9546" stroke="#FEFEFE" stroke-width="0.436619" stroke-miterlimit="10"/>
<path d="M11.2207 9.44281C14.5128 17.1293 22.5651 22.1762 22.5651 22.1762" stroke="#FEFEFE" stroke-width="0.436619" stroke-miterlimit="10"/>
<path d="M12.2485 8.63641C15.5406 16.3229 23.593 21.3698 23.593 21.3698" stroke="#FEFEFE" stroke-width="0.436619" stroke-miterlimit="10"/>
<path d="M20.8821 8.51208C18.636 9.40236 15.6929 11.6336 15.1714 13.5269" stroke="#FEFEFE" stroke-width="0.436619" stroke-miterlimit="10"/>
<path d="M22.0803 9.38617C19.6882 10.2862 16.5541 12.5422 15.9988 14.4567" stroke="#FEFEFE" stroke-width="0.436619" stroke-miterlimit="10"/>
<path d="M16.8943 15.6229C16.8943 15.6229 18.718 12.9371 20.5368 14.8187C22.2576 16.599 19.7187 18.3926 19.7187 18.3926" stroke="#FEFEFE" stroke-width="0.436619" stroke-miterlimit="10"/>
</svg>
