<svg width="30" height="31" viewBox="0 0 30 31" fill="none" xmlns="http://www.w3.org/2000/svg">
<path d="M7.00529 7.58304C7.00529 7.58304 6.62195 10.0083 5.16667 11.4242C3.74417 12.8083 1.5814 14.0714 1.5814 14.0714C1.34834 14.9033 2.08056 17.6983 1.91417 18.5633C1.74779 19.4283 0.915841 22.423 2.61306 22.7228C4.31029 23.0225 11.6639 20.9258 13.5272 20.8928C15.3906 20.8597 22.4117 22.2528 24.2417 22.155C26.0717 22.0572 27.71 21.8961 27.7689 20.4933C27.8497 18.5586 28.2361 15.4692 28.4678 13.8717C28.8406 11.3 27.3364 9.07999 24.4417 8.84721C21.547 8.61443 13.1278 9.76776 12.5625 9.5461C12.2033 9.40499 11.3314 8.54776 10.6658 8.38137C10.0003 8.21499 7.00556 7.58276 7.00556 7.58276L7.00529 7.58304Z" stroke="#201F1F" stroke-width="0.416667" stroke-miterlimit="10"/>
<path d="M2.77436 15.7019H1.4502L1.66214 16.8141H2.8802L2.77436 15.7019Z" stroke="#201F1F" stroke-width="0.333333" stroke-miterlimit="10"/>
<path d="M2.88036 17.8911L1.8212 18.0147L1.64453 19.2153H2.9687L2.88036 17.8911Z" stroke="#201F1F" stroke-width="0.333333" stroke-miterlimit="10"/>
<path d="M10.3523 17.891L11.1584 20.2835L12.2762 20.0496L11.3142 17.3196L10.3523 17.891Z" stroke="#201F1F" stroke-width="0.333333" stroke-miterlimit="10"/>
<path d="M18.661 17.891L17.8549 20.2835L16.7368 20.0496L17.6988 17.3196L18.661 17.891Z" stroke="#201F1F" stroke-width="0.333333" stroke-miterlimit="10"/>
<path d="M10.6738 9.00659C10.6738 9.00659 11.5605 10.0449 11.958 10.9535" stroke="#201F1F" stroke-width="0.305556" stroke-miterlimit="10"/>
</svg>
