<svg width="30" height="31" viewBox="0 0 30 31" fill="none" xmlns="http://www.w3.org/2000/svg">
<path d="M7.58275 1.42279C7.38386 1.76362 9.20192 5.91112 8.91775 6.53612C8.63358 7.16112 6.98608 9.2064 6.98608 9.54723C6.98608 9.88807 11.0483 12.7856 14.1161 12.53C17.1839 12.2745 19.9964 11.1097 19.9964 11.1097C19.9964 11.1097 18.1891 10.7578 18.15 8.15529C18.12 6.16612 19.2483 5.86029 19.9789 5.90557C20.898 5.96251 21.36 6.67807 21.36 6.67807L20.3941 6.98418L20.9055 9.51862L26.1608 8.29723L25.4791 5.71223L21.3603 6.67807" stroke="#201F1F" stroke-width="0.447243" stroke-miterlimit="10"/>
<path d="M19.9978 11.1103C20.9934 11.2197 21.812 10.9681 21.9886 9.26807" stroke="#201F1F" stroke-width="0.447243" stroke-miterlimit="10"/>
<path d="M20.344 7.12129C19.8665 6.82296 19.1696 6.92546 19.1973 7.97435C19.2251 9.02324 19.6307 9.9599 20.1901 10.0157C20.7496 10.0716 20.9068 9.51824 20.9068 9.51824" stroke="#201F1F" stroke-width="0.447243" stroke-miterlimit="10"/>
<path d="M24.1147 6.03263C24.1147 6.03263 26.1272 2.35707 25.3772 1.88818C24.6272 1.4193 18.6883 3.95124 16.2192 3.73235C13.75 3.51346 8.72749 1.11291 8.15499 1.26291C7.54499 1.42263 7.58526 1.42263 7.58526 1.42263" stroke="#201F1F" stroke-width="0.447243" stroke-miterlimit="10"/>
<path d="M24.3147 8.72716L24.6378 26.0208H25.7369L25.4433 8.46466" stroke="#201F1F" stroke-width="0.447243" stroke-miterlimit="10"/>
<path d="M8.27312 3.84752C7.26756 3.81641 5.61839 4.07502 5.03645 5.65946C4.4545 7.24391 4.14367 11.4172 4.4545 12.7409C4.79923 14.2095 5.35506 14.9072 6.23034 14.9072C7.10562 14.9072 8.30895 12.8384 8.27312 10.607" stroke="#201F1F" stroke-width="0.447243" stroke-miterlimit="10"/>
<path d="M7.2936 14.1039C7.13443 13.4267 7.5361 15.8353 8.04693 15.9447C8.55776 16.0542 10.2003 15.8353 10.4192 16.3461C10.638 16.8569 10.7111 17.9883 11.1125 18.39C11.5139 18.7917 15.1636 22.0397 16.733 21.6017C18.3025 21.1636 18.1319 16.5428 15.8083 12.3019" stroke="#201F1F" stroke-width="0.447243" stroke-miterlimit="10"/>
<path d="M13.009 19.9683V24.2088H14.8674V21.1591" stroke="#201F1F" stroke-width="0.447243" stroke-miterlimit="10"/>
<path d="M10.8879 18.0289V22.6134H13.0088" stroke="#201F1F" stroke-width="0.447243" stroke-miterlimit="10"/>
<path d="M17.1358 27.5856H10.5791V29.1092H17.1358V27.5856Z" stroke="#201F1F" stroke-width="0.447243" stroke-miterlimit="10"/>
<path d="M11.1111 27.5093V25.3632C11.1111 25.3632 11.5564 23.6318 13.0108 23.596" stroke="#201F1F" stroke-width="0.447243" stroke-miterlimit="10"/>
<path d="M16.6107 27.5093V25.3632C16.6107 25.3632 16.1654 23.6318 14.7109 23.596" stroke="#201F1F" stroke-width="0.447243" stroke-miterlimit="10"/>
<path d="M22.5179 7.421L21.4795 7.66742L21.6505 8.38823L22.6889 8.14181L22.5179 7.421Z" fill="#201F1F"/>
<path d="M24.8169 6.8748L23.7786 7.12122L23.9496 7.84203L24.988 7.59561L24.8169 6.8748Z" fill="#201F1F"/>
</svg>
