<svg width="30" height="31" viewBox="0 0 30 31" fill="none" xmlns="http://www.w3.org/2000/svg">
<path d="M14.2049 14.2457L7.07467 1.74103C7.07467 1.74103 5.78939 5.96492 6.64911 10.7869C7.22773 14.0321 9.04161 16.4246 9.04356 16.4271C9.30217 16.768 6.4955 19.6271 6.20967 19.9599C4.97439 21.3977 3.81328 22.9227 2.9955 24.6419C2.46467 25.7582 1.813 27.656 2.87106 28.6657C4.20661 29.9405 7.05356 29.4585 8.63134 29.0482C11.0927 28.4082 13.2255 26.936 15.4588 25.7807C16.2669 25.3627 17.103 24.978 17.9938 24.7935C18.928 24.6002 19.8958 24.6335 20.8422 24.7541C21.7041 24.8641 22.5566 25.0457 23.3886 25.2966C23.7449 25.4041 24.1033 25.5255 24.4755 25.5402C25.128 25.566 25.8097 25.138 25.9113 24.463C26.1427 22.9263 25.8361 21.2571 25.7136 19.718C25.4402 16.2833 26.8269 13.0124 26.603 9.56297C26.2749 4.50603 24.2616 1.74103 24.2616 1.74103C24.2616 1.74103 20.5761 13.5427 19.5649 14.6069C18.5538 15.671 14.2047 14.2457 14.2047 14.2457H14.2049Z" stroke="#FEFEFE" stroke-width="0.447243" stroke-miterlimit="10"/>
<path d="M3.87995 24.273C3.87995 24.273 2.76578 26.4124 3.87995 27.2146C4.99412 28.0169 6.86606 28.5071 11.9469 26.1005C17.0277 23.6938 18.8552 22.936 20.7716 23.1588C22.688 23.3816 24.248 24.0946 24.248 24.0946" stroke="#FEFEFE" stroke-width="0.38761" stroke-miterlimit="10"/>
<path d="M8.97778 16.7191C8.97778 16.7191 11.0142 14.3955 14.2033 14.2452" stroke="#FEFEFE" stroke-width="0.38761" stroke-miterlimit="10"/>
<path d="M19.2698 14.8167C19.2698 14.8167 20.1767 17.4614 25.7748 18.6225" stroke="#FEFEFE" stroke-width="0.38761" stroke-miterlimit="10"/>
</svg>
