<svg width="30" height="31" viewBox="0 0 30 31" fill="none" xmlns="http://www.w3.org/2000/svg">
<path d="M3.61279 7.57572C3.61279 7.57572 4.97113 9.43294 5.55446 14.0549C6.13779 18.6768 8.38918 22.8129 11.7014 23.0332C18.185 23.4646 19.9584 19.5741 21.5736 19.2599C23.1889 18.9457 25.4325 19.7085 26.4647 19.5291C27.497 19.3496 29.157 18.6996 28.8878 15.3452C28.6186 11.9907 27.1378 9.92655 26.5995 9.79183C26.0611 9.65711 20.8206 11.1093 18.2181 11.0646C15.6156 11.0199 12.3706 10.6385 8.99168 8.48378C7.55363 7.56655 3.61307 7.57544 3.61307 7.57544L3.61279 7.57572Z" stroke="#FEFEFE" stroke-width="0.416667" stroke-miterlimit="10"/>
<path d="M5.0564 8.37329C5.0564 8.37329 6.15501 10.9513 6.68167 14.6491C7.20834 18.3469 8.89223 21.9566 11.8833 22.133C17.7383 22.478 19.7911 18.6938 21.25 18.4425C22.7089 18.1911 25.0139 18.8594 25.9458 18.7158C26.8778 18.5722 28.3772 18.0522 28.1342 15.3683C27.8911 12.6844 26.7758 10.8136 26.2895 10.7058C25.8031 10.598 20.8489 11.9794 18.4986 11.9436C16.1483 11.9077 12.6867 12.1408 9.85251 10.0797C7.73251 8.53801 5.05695 8.37357 5.05695 8.37357L5.0564 8.37329Z" stroke="#FEFEFE" stroke-width="0.333333" stroke-miterlimit="10"/>
<path d="M3.39528 7.41382C3.39528 7.41382 2.71167 10.8097 1.81889 13.0552C0.677226 15.9266 -0.0391636 21.353 3.92917 21.8422C6.45445 22.1535 7.90861 20.6402 7.90861 20.6402" stroke="#FEFEFE" stroke-width="0.416667" stroke-miterlimit="10"/>
</svg>
