<svg width="30" height="30" viewBox="0 0 30 30" fill="none" xmlns="http://www.w3.org/2000/svg">
<path d="M7.72452 4.20513C7.72452 4.20513 8.68452 5.70541 8.56452 7.68569C8.44452 9.66597 6.22425 19.0271 6.52425 21.6674C6.82425 24.3076 9.16452 26.8879 11.4448 27.0079C13.7251 27.1279 16.6654 25.7476 17.2656 25.7476C17.8659 25.7476 22.7865 25.8676 23.8665 25.6276C24.9465 25.3876 28.067 24.2474 28.487 22.8674C28.907 21.4874 27.407 13.2662 27.407 12.546C27.407 11.8257 27.407 6.84513 25.7267 5.94513C24.0465 5.04513 18.8859 6.18513 17.0856 6.00513C15.2854 5.82513 13.0062 5.02791 9.50147 3.58374C8.93563 3.35069 7.72425 4.20485 7.72425 4.20485L7.72452 4.20513Z" stroke="#FEFEFE" stroke-width="0.417426" stroke-miterlimit="10"/>
<path d="M9.00951 4.56592C9.00951 4.56592 9.68174 6.86731 9.57451 8.63731C9.46729 10.4073 7.48285 18.7731 7.75118 21.1329C8.01924 23.4926 10.1109 25.7987 12.1487 25.9059C14.1865 26.0131 16.8145 24.7798 17.3506 24.7798C17.8867 24.7798 22.2845 24.887 23.2498 24.6726C24.2151 24.4581 27.004 23.4393 27.3792 22.2056C27.7545 20.9723 26.414 13.6251 26.414 12.9815C26.414 12.3379 26.414 7.88675 24.9123 7.08231C23.4106 6.27786 18.7987 7.29675 17.1898 7.13592C15.5809 6.97508 13.544 6.26258 10.4117 4.97203C9.90618 4.7637 9.00951 4.56647 9.00951 4.56647V4.56592Z" stroke="#FEFEFE" stroke-width="0.417426" stroke-miterlimit="10"/>
<path d="M7.18087 23.7605C5.96643 23.7227 2.49726 23.2427 1.89476 21.8119C1.18615 20.1288 1.4431 17.2941 2.45948 14.4327C3.47587 11.5713 5.69726 7.65578 6.22448 6.82772C6.75171 5.99967 7.72559 4.20605 7.72559 4.20605" stroke="#FEFEFE" stroke-width="0.417426" stroke-miterlimit="10"/>
</svg>
