<svg width="30" height="30" viewBox="0 0 30 30" fill="none" xmlns="http://www.w3.org/2000/svg">
<path d="M15.4688 11.7188C15.4688 11.9042 15.4138 12.0854 15.3108 12.2396C15.2078 12.3938 15.0613 12.5139 14.89 12.5849C14.7187 12.6558 14.5302 12.6744 14.3484 12.6382C14.1665 12.6021 13.9995 12.5128 13.8684 12.3817C13.7372 12.2506 13.648 12.0835 13.6118 11.9016C13.5756 11.7198 13.5942 11.5313 13.6651 11.36C13.7361 11.1887 13.8563 11.0423 14.0104 10.9392C14.1646 10.8362 14.3458 10.7812 14.5313 10.7812C14.7799 10.7812 15.0184 10.88 15.1942 11.0558C15.37 11.2317 15.4688 11.4701 15.4688 11.7188ZM26.7188 15.1664C26.6678 18.2027 25.4435 21.1013 23.3026 23.2549C21.1617 25.4085 18.2703 26.6498 15.2344 26.7188H14.9895C12.1155 26.7388 9.33568 25.6953 7.18479 23.7891C7.13862 23.748 7.101 23.6982 7.07407 23.6426C7.04714 23.5869 7.03143 23.5265 7.02784 23.4648C7.02058 23.3402 7.06313 23.2178 7.14611 23.1246C7.2291 23.0314 7.34572 22.9749 7.47033 22.9677C7.59494 22.9604 7.71733 23.003 7.81057 23.0859C8.64836 23.8352 9.60164 24.4442 10.6336 24.8895L14.3074 19.8375C11.359 18.3141 7.98518 18.8883 6.32229 19.1695C5.71705 19.2751 5.09429 19.2078 4.52564 18.9752C3.957 18.7426 3.46555 18.3542 3.10783 17.8547C3.10197 17.8465 3.09611 17.8383 3.09143 17.8301L1.47541 15.252C1.44284 15.2002 1.42088 15.1424 1.41082 15.0821C1.40076 15.0217 1.4028 14.9599 1.41682 14.9004C1.43073 14.8401 1.45642 14.7832 1.49242 14.7329C1.52843 14.6827 1.57402 14.64 1.62658 14.6074L13.5938 7.2375V3.75C13.5938 3.62568 13.6432 3.50645 13.7311 3.41854C13.819 3.33064 13.9382 3.28125 14.0625 3.28125H15C16.5531 3.28109 18.0906 3.58963 19.5234 4.18893C20.9561 4.78823 22.2554 5.66634 23.3458 6.77222C24.4362 7.87809 25.2959 9.18967 25.875 10.6307C26.454 12.0718 26.7408 13.6135 26.7188 15.1664ZM22.6781 7.43203C21.6777 6.4109 20.4829 5.60049 19.1642 5.0486C17.8454 4.49672 16.4296 4.21456 15 4.21875H14.5313V7.5C14.5314 7.58008 14.511 7.65885 14.472 7.72881C14.433 7.79876 14.3768 7.85757 14.3086 7.89961L2.52307 15.1512L3.8801 17.3215C4.1364 17.6746 4.48668 17.9487 4.89108 18.1126C5.29549 18.2765 5.73777 18.3235 6.1676 18.2484C8.0051 17.9367 11.802 17.2957 15.1196 19.2152C16.4667 19.1846 17.7483 18.6279 18.69 17.6642C19.6318 16.7005 20.159 15.4064 20.1586 14.059C20.1586 13.9347 20.208 13.8154 20.2959 13.7275C20.3838 13.6396 20.503 13.5902 20.6274 13.5902C20.7517 13.5902 20.8709 13.6396 20.9588 13.7275C21.0467 13.8154 21.0961 13.9347 21.0961 14.059C21.0965 15.6345 20.4874 17.149 19.3963 18.2855C18.3052 19.422 16.8168 20.0924 15.2426 20.1562L11.5442 25.2422C12.7297 25.6273 13.9718 25.8095 15.218 25.7812C17.3254 25.7392 19.3743 25.0802 21.1112 23.886C22.8482 22.6917 24.1969 21.0144 24.9906 19.0617C25.7842 17.1089 25.9881 14.9664 25.5769 12.899C25.1657 10.8316 24.1575 8.9301 22.677 7.42969L22.6781 7.43203Z" fill="#2A2A2A"/>
</svg>
