<svg width="30" height="30" viewBox="0 0 30 30" fill="none" xmlns="http://www.w3.org/2000/svg">
<path d="M11.4186 1.33057C11.897 1.66612 13.0078 2.34584 14.5656 2.43084C16.4284 2.53223 17.7817 1.72001 18.2536 1.40501" stroke="#fefefe" stroke-width="0.694444" stroke-miterlimit="10"/>
<path d="M6.72751 7.84747L7.17946 17.76C7.21251 18.483 7.2089 19.2075 7.1689 19.9303L6.72723 27.9214C6.72723 28.355 7.07862 28.7064 7.51223 28.7064H22.2225C22.6561 28.7064 23.0075 28.355 23.0075 27.9214L22.5453 19.55C22.5142 18.9853 22.5117 18.4197 22.5383 17.8547L23.0078 7.84747" stroke="#fefefe" stroke-width="0.694444" stroke-miterlimit="10" stroke-linecap="round"/>
<path d="M7.02586 14.3916L2.80086 13.483C2.36836 13.39 2.12641 12.9269 2.29725 12.5186L5.99836 3.68051C6.08808 3.46607 6.2778 3.3094 6.50558 3.2619C8.29058 2.88829 9.95919 2.12135 11.36 1.3469C11.4028 1.32329 11.4561 1.3469 11.467 1.3944C11.8442 3.05135 13.2825 4.22857 14.9092 4.20551C16.4934 4.18301 17.8722 3.02802 18.25 1.42163C18.255 1.39996 18.2792 1.38885 18.2986 1.39968C19.6467 2.14718 21.2453 2.89024 22.9584 3.2819C23.3309 3.36718 23.6372 3.63107 23.782 3.98468L27.2978 12.5858C27.4678 13.0016 27.2178 13.4694 26.7775 13.5591L22.7009 14.39" stroke="#fefefe" stroke-width="0.694444" stroke-miterlimit="10"/>
</svg>
