<svg width="24" height="24" viewBox="0 0 24 24" fill="none" xmlns="http://www.w3.org/2000/svg">
<path d="M12 0.5C9.72552 0.5 7.50211 1.17446 5.61095 2.4381C3.71978 3.70174 2.2458 5.49779 1.37539 7.59914C0.504983 9.70049 0.277245 12.0128 0.720974 14.2435C1.1647 16.4743 2.25997 18.5234 3.86828 20.1317C5.47658 21.74 7.52568 22.8353 9.75646 23.279C11.9872 23.7228 14.2995 23.495 16.4009 22.6246C18.5022 21.7542 20.2983 20.2802 21.5619 18.3891C22.8255 16.4979 23.5 14.2745 23.5 12C23.4967 8.95104 22.284 6.02791 20.128 3.87197C17.9721 1.71603 15.049 0.503348 12 0.5ZM5.20005 20.0983C5.88259 18.8965 6.87146 17.897 8.06595 17.2017C9.26044 16.5064 10.6179 16.14 12 16.14C13.3821 16.14 14.7396 16.5064 15.9341 17.2017C17.1285 17.897 18.1174 18.8965 18.8 20.0983C16.8966 21.701 14.4883 22.58 12 22.58C9.51172 22.58 7.10341 21.701 5.20005 20.0983ZM19.4946 19.46C18.3518 17.5495 16.5197 16.1501 14.3759 15.55C15.3727 15.0199 16.1635 14.1717 16.6227 13.1403C17.0818 12.1089 17.1828 10.9536 16.9096 9.8582C16.6365 8.76278 16.0048 7.79018 15.1152 7.09513C14.2255 6.40009 13.129 6.02253 12 6.02253C10.871 6.02253 9.77449 6.40009 8.88484 7.09513C7.99519 7.79018 7.36353 8.76278 7.09036 9.8582C6.81719 10.9536 6.91821 12.1089 7.37733 13.1403C7.83646 14.1717 8.62733 15.0199 9.6241 15.55C7.48026 16.1501 5.64822 17.5495 4.50545 19.46C3.0296 17.9789 2.02571 16.0937 1.62054 14.0424C1.21537 11.9911 1.4271 9.86576 2.22898 7.93472C3.03087 6.00368 4.38695 4.35354 6.126 3.19267C7.86505 2.0318 9.90909 1.41224 12 1.41224C14.0909 1.41224 16.135 2.0318 17.874 3.19267C19.6131 4.35354 20.9691 6.00368 21.771 7.93472C22.5729 9.86576 22.7846 11.9911 22.3795 14.0424C21.9743 16.0937 20.9704 17.9789 19.4946 19.46ZM12 15.22C11.1812 15.22 10.3808 14.9772 9.69994 14.5223C9.01912 14.0674 8.48849 13.4208 8.17514 12.6643C7.86179 11.9078 7.77981 11.0754 7.93955 10.2723C8.09929 9.46924 8.49359 8.73157 9.07258 8.15258C9.65157 7.57359 10.3892 7.17929 11.1923 7.01955C11.9954 6.8598 12.8278 6.94179 13.5843 7.25514C14.3408 7.56848 14.9874 8.09912 15.4423 8.77994C15.8972 9.46076 16.14 10.2612 16.14 11.08C16.14 12.178 15.7038 13.231 14.9274 14.0074C14.151 14.7838 13.098 15.22 12 15.22Z" fill="black"/>
</svg>
