<svg width="20" height="21" viewBox="0 0 20 21" fill="none" xmlns="http://www.w3.org/2000/svg">
<path d="M17.9419 17.558L14.0302 13.6471C15.1639 12.2859 15.7293 10.54 15.6086 8.77263C15.488 7.00524 14.6906 5.35241 13.3823 4.15797C12.074 2.96353 10.3557 2.31944 8.58462 2.35969C6.81357 2.39994 5.12622 3.12143 3.87358 4.37407C2.62094 5.62671 1.89945 7.31406 1.8592 9.0851C1.81895 10.8561 2.46304 12.5745 3.65748 13.8828C4.85192 15.191 6.50475 15.9884 8.27214 16.1091C10.0395 16.2298 11.7854 15.6644 13.1466 14.5306L17.0575 18.4424C17.1156 18.5004 17.1845 18.5465 17.2604 18.5779C17.3363 18.6094 17.4176 18.6255 17.4997 18.6255C17.5818 18.6255 17.6631 18.6094 17.739 18.5779C17.8149 18.5465 17.8838 18.5004 17.9419 18.4424C17.9999 18.3843 18.046 18.3154 18.0774 18.2395C18.1089 18.1636 18.125 18.0823 18.125 18.0002C18.125 17.9181 18.1089 17.8367 18.0774 17.7609C18.046 17.685 17.9999 17.6161 17.9419 17.558ZM3.12469 9.25018C3.12469 8.13766 3.45459 7.05012 4.07267 6.1251C4.69076 5.20007 5.56926 4.4791 6.5971 4.05336C7.62493 3.62761 8.75593 3.51622 9.84707 3.73326C10.9382 3.9503 11.9405 4.48603 12.7272 5.2727C13.5138 6.05937 14.0496 7.06165 14.2666 8.1528C14.4837 9.24394 14.3723 10.3749 13.9465 11.4028C13.5208 12.4306 12.7998 13.3091 11.8748 13.9272C10.9497 14.5453 9.86221 14.8752 8.74969 14.8752C7.25836 14.8735 5.82858 14.2804 4.77404 13.2258C3.71951 12.1713 3.12634 10.7415 3.12469 9.25018Z" fill="#201F1F"/>
</svg>
