<svg width="20" height="21" viewBox="0 0 20 21" fill="none" xmlns="http://www.w3.org/2000/svg">
<path d="M18.0407 17.0625C16.8508 15.0055 15.0172 13.5305 12.8774 12.8312C13.9358 12.2011 14.7582 11.241 15.2182 10.0983C15.6781 8.95554 15.7503 7.69343 15.4235 6.50574C15.0968 5.31805 14.3892 4.27045 13.4094 3.52384C12.4296 2.77722 11.2318 2.37286 10 2.37286C8.76821 2.37286 7.57044 2.77722 6.59067 3.52384C5.6109 4.27045 4.90331 5.31805 4.57654 6.50574C4.24978 7.69343 4.32193 8.95554 4.78189 10.0983C5.24186 11.241 6.06422 12.2011 7.12268 12.8312C4.98284 13.5297 3.14925 15.0047 1.9594 17.0625C1.91577 17.1336 1.88683 17.2128 1.87429 17.2953C1.86174 17.3778 1.86585 17.462 1.88638 17.5429C1.9069 17.6238 1.94341 17.6998 1.99377 17.7663C2.04413 17.8329 2.10731 17.8887 2.17958 17.9304C2.25185 17.9722 2.33175 17.999 2.41457 18.0094C2.49738 18.0198 2.58143 18.0134 2.66176 17.9908C2.74209 17.9682 2.81708 17.9296 2.88228 17.8776C2.94749 17.8255 3.00161 17.7608 3.04143 17.6875C4.51331 15.1437 7.11487 13.625 10 13.625C12.8852 13.625 15.4867 15.1437 16.9586 17.6875C16.9985 17.7608 17.0526 17.8255 17.1178 17.8776C17.183 17.9296 17.258 17.9682 17.3383 17.9908C17.4186 18.0134 17.5027 18.0198 17.5855 18.0094C17.6683 17.999 17.7482 17.9722 17.8205 17.9304C17.8927 17.8887 17.9559 17.8329 18.0063 17.7663C18.0566 17.6998 18.0932 17.6238 18.1137 17.5429C18.1342 17.462 18.1383 17.3778 18.1258 17.2953C18.1132 17.2128 18.0843 17.1336 18.0407 17.0625ZM5.62503 7.99999C5.62503 7.1347 5.88162 6.28883 6.36235 5.56937C6.84308 4.8499 7.52636 4.28915 8.32579 3.95802C9.12522 3.62688 10.0049 3.54024 10.8535 3.70905C11.7022 3.87786 12.4818 4.29454 13.0936 4.9064C13.7055 5.51825 14.1222 6.2978 14.291 7.14647C14.4598 7.99514 14.3731 8.8748 14.042 9.67423C13.7109 10.4737 13.1501 11.1569 12.4306 11.6377C11.7112 12.1184 10.8653 12.375 10 12.375C8.84009 12.3737 7.72801 11.9124 6.90781 11.0922C6.0876 10.272 5.62627 9.15993 5.62503 7.99999Z" fill="#201F1F"/>
</svg>
