<svg width="16" height="16" viewBox="0 0 16 16" fill="none" xmlns="http://www.w3.org/2000/svg">
<path d="M12.6769 12.3233C12.7238 12.3702 12.7502 12.4338 12.7502 12.5001C12.7502 12.5665 12.7238 12.6301 12.6769 12.677C12.63 12.7239 12.5664 12.7503 12.5 12.7503C12.4337 12.7503 12.3701 12.7239 12.3231 12.677L8.00002 8.35389L3.67689 12.677C3.62998 12.7239 3.56636 12.7503 3.50002 12.7503C3.43368 12.7503 3.37005 12.7239 3.32314 12.677C3.27623 12.6301 3.24988 12.5665 3.24988 12.5001C3.24988 12.4338 3.27623 12.3702 3.32314 12.3233L7.64627 8.00014L3.32314 3.67701C3.27623 3.6301 3.24988 3.56648 3.24988 3.50014C3.24988 3.4338 3.27623 3.37017 3.32314 3.32326C3.37005 3.27635 3.43368 3.25 3.50002 3.25C3.56636 3.25 3.62998 3.27635 3.67689 3.32326L8.00002 7.64639L12.3231 3.32326C12.3464 3.30004 12.3739 3.28161 12.4043 3.26904C12.4346 3.25647 12.4672 3.25 12.5 3.25C12.5329 3.25 12.5654 3.25647 12.5957 3.26904C12.6261 3.28161 12.6537 3.30004 12.6769 3.32326C12.7001 3.34649 12.7185 3.37407 12.7311 3.40441C12.7437 3.43476 12.7502 3.46729 12.7502 3.50014C12.7502 3.53299 12.7437 3.56551 12.7311 3.59586C12.7185 3.62621 12.7001 3.65379 12.6769 3.67701L8.35377 8.00014L12.6769 12.3233Z" fill="#201F1F"/>
</svg>
