<svg width="22" height="20" viewBox="0 0 22 20" fill="none" xmlns="http://www.w3.org/2000/svg">
<path d="M11.44 9.13043V19.5652C11.44 19.6805 11.3936 19.7911 11.3111 19.8727C11.2286 19.9542 11.1167 20 11 20C10.8833 20 10.7714 19.9542 10.6889 19.8727C10.6064 19.7911 10.56 19.6805 10.56 19.5652V9.13043C10.56 9.01512 10.6064 8.90453 10.6889 8.823C10.7714 8.74146 10.8833 8.69565 11 8.69565C11.1167 8.69565 11.2286 8.74146 11.3111 8.823C11.3936 8.90453 11.44 9.01512 11.44 9.13043ZM18.92 17.3913C18.8033 17.3913 18.6914 17.4371 18.6089 17.5186C18.5264 17.6002 18.48 17.7108 18.48 17.8261V19.5652C18.48 19.6805 18.5264 19.7911 18.6089 19.8727C18.6914 19.9542 18.8033 20 18.92 20C19.0367 20 19.1486 19.9542 19.2311 19.8727C19.3136 19.7911 19.36 19.6805 19.36 19.5652V17.8261C19.36 17.7108 19.3136 17.6002 19.2311 17.5186C19.1486 17.4371 19.0367 17.3913 18.92 17.3913ZM21.56 13.913H19.36V0.434783C19.36 0.319471 19.3136 0.208883 19.2311 0.127345C19.1486 0.0458074 19.0367 0 18.92 0C18.8033 0 18.6914 0.0458074 18.6089 0.127345C18.5264 0.208883 18.48 0.319471 18.48 0.434783V13.913H16.28C16.1633 13.913 16.0514 13.9588 15.9689 14.0404C15.8864 14.1219 15.84 14.2325 15.84 14.3478C15.84 14.4631 15.8864 14.5737 15.9689 14.6553C16.0514 14.7368 16.1633 14.7826 16.28 14.7826H21.56C21.6767 14.7826 21.7886 14.7368 21.8711 14.6553C21.9536 14.5737 22 14.4631 22 14.3478C22 14.2325 21.9536 14.1219 21.8711 14.0404C21.7886 13.9588 21.6767 13.913 21.56 13.913ZM3.08 13.913C2.9633 13.913 2.85139 13.9588 2.76887 14.0404C2.68636 14.1219 2.64 14.2325 2.64 14.3478V19.5652C2.64 19.6805 2.68636 19.7911 2.76887 19.8727C2.85139 19.9542 2.9633 20 3.08 20C3.1967 20 3.30861 19.9542 3.39113 19.8727C3.47364 19.7911 3.52 19.6805 3.52 19.5652V14.3478C3.52 14.2325 3.47364 14.1219 3.39113 14.0404C3.30861 13.9588 3.1967 13.913 3.08 13.913ZM5.72 10.4348H3.52V0.434783C3.52 0.319471 3.47364 0.208883 3.39113 0.127345C3.30861 0.0458074 3.1967 0 3.08 0C2.9633 0 2.85139 0.0458074 2.76887 0.127345C2.68636 0.208883 2.64 0.319471 2.64 0.434783V10.4348H0.44C0.323305 10.4348 0.211389 10.4806 0.128873 10.5621C0.0463571 10.6437 0 10.7543 0 10.8696C0 10.9849 0.0463571 11.0955 0.128873 11.177C0.211389 11.2585 0.323305 11.3043 0.44 11.3043H5.72C5.8367 11.3043 5.94861 11.2585 6.03113 11.177C6.11364 11.0955 6.16 10.9849 6.16 10.8696C6.16 10.7543 6.11364 10.6437 6.03113 10.5621C5.94861 10.4806 5.8367 10.4348 5.72 10.4348ZM13.64 5.21739H11.44V0.434783C11.44 0.319471 11.3936 0.208883 11.3111 0.127345C11.2286 0.0458074 11.1167 0 11 0C10.8833 0 10.7714 0.0458074 10.6889 0.127345C10.6064 0.208883 10.56 0.319471 10.56 0.434783V5.21739H8.36C8.2433 5.21739 8.13139 5.2632 8.04887 5.34474C7.96636 5.42627 7.92 5.53686 7.92 5.65217C7.92 5.76749 7.96636 5.87807 8.04887 5.95961C8.13139 6.04115 8.2433 6.08696 8.36 6.08696H13.64C13.7567 6.08696 13.8686 6.04115 13.9511 5.95961C14.0336 5.87807 14.08 5.76749 14.08 5.65217C14.08 5.53686 14.0336 5.42627 13.9511 5.34474C13.8686 5.2632 13.7567 5.21739 13.64 5.21739Z" fill="#201F1F"/>
</svg>
