<svg width="20" height="21" viewBox="0 0 20 21" fill="none" xmlns="http://www.w3.org/2000/svg">
<path d="M8.125 17.375C8.125 17.6222 8.05169 17.8639 7.91434 18.0695C7.77699 18.275 7.58176 18.4352 7.35335 18.5299C7.12495 18.6245 6.87361 18.6492 6.63114 18.601C6.38866 18.5527 6.16593 18.4337 5.99112 18.2589C5.8163 18.0841 5.69725 17.8613 5.64902 17.6189C5.60079 17.3764 5.62554 17.1251 5.72015 16.8966C5.81476 16.6682 5.97498 16.473 6.18054 16.3357C6.3861 16.1983 6.62777 16.125 6.875 16.125C7.20652 16.125 7.52446 16.2567 7.75888 16.4911C7.9933 16.7255 8.125 17.0435 8.125 17.375ZM15 16.125C14.7528 16.125 14.5111 16.1983 14.3055 16.3357C14.1 16.473 13.9398 16.6682 13.8451 16.8966C13.7505 17.1251 13.7258 17.3764 13.774 17.6189C13.8222 17.8613 13.9413 18.0841 14.1161 18.2589C14.2909 18.4337 14.5137 18.5527 14.7561 18.601C14.9986 18.6492 15.2499 18.6245 15.4784 18.5299C15.7068 18.4352 15.902 18.275 16.0393 18.0695C16.1767 17.8639 16.25 17.6222 16.25 17.375C16.25 17.0435 16.1183 16.7255 15.8839 16.4911C15.6495 16.2567 15.3315 16.125 15 16.125ZM18.7273 6.29219L16.7242 13.5016C16.6141 13.8954 16.3785 14.2425 16.0533 14.4904C15.728 14.7383 15.3308 14.8733 14.9219 14.875H7.2C6.78987 14.8748 6.39105 14.7405 6.06437 14.4925C5.7377 14.2446 5.50108 13.8965 5.39062 13.5016L2.65 3.625H1.25C1.08424 3.625 0.925268 3.55915 0.808058 3.44194C0.690848 3.32473 0.625 3.16576 0.625 3C0.625 2.83424 0.690848 2.67527 0.808058 2.55806C0.925268 2.44085 1.08424 2.375 1.25 2.375H3.125C3.26164 2.37497 3.39453 2.41973 3.50331 2.50241C3.6121 2.58509 3.69079 2.70115 3.72734 2.83281L4.46797 5.5H18.125C18.2214 5.49998 18.3164 5.52224 18.4027 5.56504C18.4891 5.60784 18.5643 5.67001 18.6226 5.74671C18.681 5.82341 18.7208 5.91255 18.7389 6.00718C18.7571 6.1018 18.7531 6.19935 18.7273 6.29219ZM17.3023 6.75H4.81563L6.59766 13.1672C6.63421 13.2989 6.7129 13.4149 6.82169 13.4976C6.93047 13.5803 7.06336 13.625 7.2 13.625H14.9219C15.0585 13.625 15.1914 13.5803 15.3002 13.4976C15.409 13.4149 15.4877 13.2989 15.5242 13.1672L17.3023 6.75Z" fill="#201F1F"/>
</svg>
