<svg width="24" height="16" viewBox="0 0 24 16" fill="none" xmlns="http://www.w3.org/2000/svg">
<path d="M23.5148 0.26247C23.3645 0.143837 23.1892 0.0623175 23.0027 0.0243277C22.8162 -0.0136621 22.6236 -0.00708499 22.44 0.0435416L22.081 0.141428C20.1176 0.681379 16.4628 1.68445 12 1.68445C7.53725 1.68445 3.88243 0.681379 1.91898 0.141428L1.56001 0.0435416C1.37627 -0.00610463 1.18378 -0.0121502 0.997382 0.0258707C0.810982 0.0638917 0.635655 0.144963 0.484922 0.262834C0.334189 0.380704 0.212077 0.532224 0.128004 0.705708C0.0439308 0.879192 0.000142286 1.07001 1.5561e-05 1.26343V14.7359C-0.000940546 14.9298 0.0421747 15.1213 0.125993 15.2954C0.209812 15.4696 0.332064 15.6216 0.4832 15.7397C0.634336 15.8578 0.810263 15.9388 0.997239 15.9763C1.18421 16.0138 1.37718 16.0067 1.56105 15.9558L1.89001 15.8663C3.85553 15.3232 7.51449 14.3149 12 14.3149C16.4855 14.3149 20.1445 15.3232 22.11 15.8653L22.439 15.9547C22.6227 16.0046 22.8152 16.0108 23.0017 15.9729C23.1881 15.935 23.3635 15.8541 23.5144 15.7363C23.6652 15.6185 23.7874 15.4671 23.8716 15.2936C23.9558 15.1202 23.9998 14.9294 24 14.7359V1.26343C24.0005 1.06981 23.957 0.878692 23.8728 0.705038C23.7887 0.531385 23.6661 0.379909 23.5148 0.26247ZM0.990015 0.929778C1.06209 0.87334 1.15044 0.842637 1.24139 0.842417C1.27633 0.843068 1.31107 0.848016 1.34484 0.857153L1.7007 0.955039C3.70346 1.50446 7.4276 2.52648 12 2.52648C16.5724 2.52648 20.2966 1.50446 22.2972 0.955039L22.6541 0.857153C22.7152 0.840928 22.7792 0.83915 22.8411 0.851953C22.903 0.864756 22.9611 0.891801 23.0112 0.931017C23.0612 0.970232 23.1017 1.02058 23.1297 1.0782C23.1576 1.13582 23.1722 1.19918 23.1724 1.26343V14.7359C23.1724 14.7496 23.1724 14.7612 23.1724 14.7748L16.4638 7.94915C16.3485 7.8314 16.2114 7.73797 16.0605 7.67422C15.9096 7.61047 15.7479 7.57766 15.5845 7.57766C15.4211 7.57766 15.2593 7.61047 15.1084 7.67422C14.9575 7.73797 14.8205 7.8314 14.7052 7.94915L12.3435 10.3521L7.49897 5.42201C7.38365 5.30426 7.24661 5.21083 7.09572 5.14708C6.94482 5.08333 6.78305 5.05052 6.61966 5.05052C6.45628 5.05052 6.29451 5.08333 6.14361 5.14708C5.99272 5.21083 5.85568 5.30426 5.74036 5.42201L0.827601 10.4205V1.26343C0.827717 1.19887 0.842424 1.1352 0.870586 1.07734C0.898749 1.01949 0.939611 0.969 0.990015 0.929778ZM1.67277 15.0517L1.34691 15.1411C1.28582 15.1575 1.22185 15.1595 1.15991 15.1468C1.09797 15.1342 1.0397 15.1072 0.98957 15.0681C0.939438 15.029 0.898776 14.9787 0.8707 14.9211C0.842625 14.8635 0.827882 14.8002 0.827601 14.7359V11.6141L6.32794 6.01774C6.36637 5.9786 6.41201 5.94754 6.46224 5.92636C6.51248 5.90517 6.56632 5.89426 6.6207 5.89426C6.67508 5.89426 6.72892 5.90517 6.77916 5.92636C6.82939 5.94754 6.87503 5.9786 6.91346 6.01774L14.3276 13.5613C13.5786 13.5055 12.8007 13.4729 12 13.4729C7.4038 13.4729 3.53381 14.5391 1.67277 15.0517ZM15.6207 13.6834L12.931 10.9468L15.2928 8.54383C15.3312 8.50469 15.3768 8.47363 15.4271 8.45245C15.4773 8.43126 15.5311 8.42035 15.5855 8.42035C15.6399 8.42035 15.6937 8.43126 15.744 8.45245C15.7942 8.47363 15.8398 8.50469 15.8783 8.54383L22.2548 15.0317C20.8966 14.657 18.5286 14.0139 15.6207 13.6834ZM19.0345 5.8946C19.0345 5.72806 19.083 5.56526 19.174 5.42679C19.2649 5.28832 19.3941 5.18039 19.5454 5.11666C19.6966 5.05293 19.863 5.03625 20.0235 5.06874C20.1841 5.10123 20.3315 5.18143 20.4473 5.29919C20.563 5.41695 20.6418 5.56699 20.6738 5.73032C20.7057 5.89366 20.6893 6.06297 20.6267 6.21683C20.564 6.37069 20.4579 6.50219 20.3218 6.59472C20.1858 6.68724 20.0257 6.73663 19.8621 6.73663C19.6426 6.73663 19.4321 6.64791 19.2769 6.49C19.1217 6.33209 19.0345 6.11792 19.0345 5.8946Z" fill="black"/>
</svg>
