<svg width="24" height="24" viewBox="0 0 24 24" fill="none" xmlns="http://www.w3.org/2000/svg">
<path d="M22 14.3473C22 14.4511 21.9595 14.5506 21.8874 14.624C21.8152 14.6973 21.7174 14.7386 21.6154 14.7386H19.6925V16.6947C19.6925 16.7984 19.652 16.8979 19.5799 16.9713C19.5078 17.0447 19.4099 17.0859 19.3079 17.0859C19.2059 17.0859 19.1081 17.0447 19.036 16.9713C18.9639 16.8979 18.9234 16.7984 18.9234 16.6947V14.7386H17.0005C16.8985 14.7386 16.8007 14.6973 16.7285 14.624C16.6564 14.5506 16.6159 14.4511 16.6159 14.3473C16.6159 14.2436 16.6564 14.1441 16.7285 14.0707C16.8007 13.9973 16.8985 13.9561 17.0005 13.9561H18.9234V12C18.9234 11.8962 18.9639 11.7967 19.036 11.7234C19.1081 11.65 19.2059 11.6088 19.3079 11.6088C19.4099 11.6088 19.5078 11.65 19.5799 11.7234C19.652 11.7967 19.6925 11.8962 19.6925 12V13.9561H21.6154C21.7174 13.9561 21.8152 13.9973 21.8874 14.0707C21.9595 14.1441 22 14.2436 22 14.3473ZM3.92477 6.13168H5.84767V8.08778C5.84767 8.19154 5.88818 8.29105 5.96031 8.36442C6.03243 8.43779 6.13025 8.47901 6.23224 8.47901C6.33424 8.47901 6.43206 8.43779 6.50418 8.36442C6.57631 8.29105 6.61682 8.19154 6.61682 8.08778V6.13168H8.53972C8.64172 6.13168 8.73954 6.09046 8.81166 6.01709C8.88378 5.94372 8.9243 5.84421 8.9243 5.74045C8.9243 5.6367 8.88378 5.53719 8.81166 5.46382C8.73954 5.39045 8.64172 5.34923 8.53972 5.34923H6.61682V3.39313C6.61682 3.28937 6.57631 3.18986 6.50418 3.11649C6.43206 3.04312 6.33424 3.0019 6.23224 3.0019C6.13025 3.0019 6.03243 3.04312 5.96031 3.11649C5.88818 3.18986 5.84767 3.28937 5.84767 3.39313V5.34923H3.92477C3.82277 5.34923 3.72495 5.39045 3.65283 5.46382C3.58071 5.53719 3.54019 5.6367 3.54019 5.74045C3.54019 5.84421 3.58071 5.94372 3.65283 6.01709C3.72495 6.09046 3.82277 6.13168 3.92477 6.13168ZM16.2313 18.6508H15.0776V17.4771C15.0776 17.3733 15.0371 17.2738 14.9649 17.2005C14.8928 17.1271 14.795 17.0859 14.693 17.0859C14.591 17.0859 14.4932 17.1271 14.4211 17.2005C14.3489 17.2738 14.3084 17.3733 14.3084 17.4771V18.6508H13.1547C13.0527 18.6508 12.9549 18.692 12.8827 18.7654C12.8106 18.8387 12.7701 18.9382 12.7701 19.042C12.7701 19.1457 12.8106 19.2453 12.8827 19.3186C12.9549 19.392 13.0527 19.4332 13.1547 19.4332H14.3084V20.6069C14.3084 20.7106 14.3489 20.8101 14.4211 20.8835C14.4932 20.9569 14.591 20.9981 14.693 20.9981C14.795 20.9981 14.8928 20.9569 14.9649 20.8835C15.0371 20.8101 15.0776 20.7106 15.0776 20.6069V19.4332H16.2313C16.3333 19.4332 16.4311 19.392 16.5032 19.3186C16.5754 19.2453 16.6159 19.1457 16.6159 19.042C16.6159 18.9382 16.5754 18.8387 16.5032 18.7654C16.4311 18.692 16.3333 18.6508 16.2313 18.6508ZM19.3541 7.02855L5.96015 20.6548C5.85297 20.7642 5.7256 20.851 5.58536 20.9103C5.44513 20.9695 5.29477 21 5.14292 21C4.99108 21 4.84072 20.9695 4.70048 20.9103C4.56024 20.851 4.43288 20.7642 4.32569 20.6548L2.33934 18.6312C2.23178 18.5222 2.14644 18.3926 2.08821 18.2499C2.02998 18.1073 2 17.9543 2 17.7999C2 17.6454 2.02998 17.4924 2.08821 17.3498C2.14644 17.2071 2.23178 17.0775 2.33934 16.9685L15.7342 3.3452C15.8414 3.23578 15.9688 3.14897 16.109 3.08973C16.2493 3.03049 16.3996 3 16.5515 3C16.7033 3 16.8537 3.03049 16.9939 3.08973C17.1342 3.14897 17.2615 3.23578 17.3687 3.3452L19.3541 5.36879C19.5704 5.5889 19.692 5.88741 19.692 6.19867C19.692 6.50993 19.5704 6.80845 19.3541 7.02855ZM14.918 10.4351L12.3855 7.85892L2.88352 17.525C2.8116 17.5984 2.77121 17.6977 2.77121 17.8013C2.77121 17.9049 2.8116 18.0043 2.88352 18.0776L4.87179 20.1012C4.90751 20.1376 4.94993 20.1665 4.99661 20.1861C5.0433 20.2058 5.09335 20.216 5.14388 20.216C5.19442 20.216 5.24447 20.2058 5.29116 20.1861C5.33784 20.1665 5.38026 20.1376 5.41597 20.1012L14.918 10.4351ZM18.8109 5.92237L16.8216 3.89878C16.7859 3.8624 16.7435 3.83355 16.6968 3.81386C16.6501 3.79417 16.6001 3.78404 16.5495 3.78404C16.499 3.78404 16.449 3.79417 16.4023 3.81386C16.3556 3.83355 16.3132 3.8624 16.2775 3.89878L12.9287 7.30534L15.4622 9.88153L18.8109 6.47497C18.8828 6.40163 18.9232 6.30227 18.9232 6.19867C18.9232 6.09508 18.8828 5.99571 18.8109 5.92237Z" fill="white"/>
</svg>
