<svg width="12" height="12" viewBox="0 0 12 12" fill="none" xmlns="http://www.w3.org/2000/svg">
<path d="M12 6C12 6.06919 11.9725 6.13554 11.9236 6.18446C11.8747 6.23339 11.8083 6.26087 11.7391 6.26087H6.26087V11.7391C6.26087 11.8083 6.23339 11.8747 6.18446 11.9236C6.13554 11.9725 6.06919 12 6 12C5.93081 12 5.86446 11.9725 5.81554 11.9236C5.76661 11.8747 5.73913 11.8083 5.73913 11.7391V6.26087H0.26087C0.191683 6.26087 0.12533 6.23339 0.076407 6.18446C0.0274844 6.13554 0 6.06919 0 6C0 5.93081 0.0274844 5.86446 0.076407 5.81554C0.12533 5.76661 0.191683 5.73913 0.26087 5.73913H5.73913V0.26087C5.73913 0.191683 5.76661 0.12533 5.81554 0.076407C5.86446 0.0274844 5.93081 0 6 0C6.06919 0 6.13554 0.0274844 6.18446 0.076407C6.23339 0.12533 6.26087 0.191683 6.26087 0.26087V5.73913H11.7391C11.8083 5.73913 11.8747 5.76661 11.9236 5.81554C11.9725 5.86446 12 5.93081 12 6Z" fill="#201F1F"/>
</svg>
