<svg width="30" height="30" viewBox="0 0 30 30" fill="none" xmlns="http://www.w3.org/2000/svg">
<path d="M20.5694 20.9643L21.8911 23.3105C22.0353 23.566 21.9469 23.8902 21.6933 24.0374L13.4486 28.826C13.1936 28.9741 12.8667 28.8885 12.7169 28.6341L11.4064 26.4063C11.2569 26.1521 11.3405 25.8246 11.5942 25.6735L19.8278 20.7666C20.0867 20.6124 20.4217 20.7016 20.5697 20.9641L20.5694 20.9643Z" stroke="#201F1F" stroke-width="0.694444" stroke-miterlimit="10"/>
<path d="M19.9158 20.6571L11.8178 6.95462C11.8178 6.95462 11.0411 5.70101 10.0133 6.30128C9.06417 6.85573 9.7475 8.10795 9.7475 8.10795L12.6828 13.1921" stroke="#201F1F" stroke-width="0.694444" stroke-miterlimit="10"/>
<path d="M9.5375 7.68103L8.25695 5.62853C8.25695 5.62853 7.66917 4.73631 6.6575 5.35908C5.72584 5.93242 6.32056 6.97464 6.32056 6.97464L9.93361 13.398" stroke="#201F1F" stroke-width="0.694444" stroke-miterlimit="10"/>
<path d="M6.32053 6.9746C6.32053 6.9746 5.44386 4.93932 4.15247 5.55321C2.79747 6.1971 4.02941 8.03349 4.02941 8.03349L4.20303 8.33543L8.25192 15.3718" stroke="#201F1F" stroke-width="0.694444" stroke-miterlimit="10"/>
<path d="M4.37843 8.63937C4.37843 8.63937 3.60843 7.4416 2.61537 8.11521C1.62231 8.78882 2.23481 9.80632 2.26537 9.87493C2.2662 9.87715 2.26731 9.8791 2.26843 9.88104L6.64037 17.5322C6.67648 17.5952 6.60454 17.6647 6.54287 17.6269L2.70259 15.2727C2.6987 15.2705 2.69509 15.2685 2.69093 15.2669C2.61009 15.2363 1.68676 14.8002 1.16926 15.6433C0.700092 16.4077 1.50398 17.1002 1.56481 17.1891C1.56787 17.1935 1.57148 17.1977 1.57565 17.2016L3.03481 18.5247C3.62481 19.0597 4.29454 19.5385 4.82926 20.1305C5.34204 20.6985 5.7187 21.3433 6.33843 21.8183C7.00315 22.328 7.80759 22.6124 8.57537 22.9474C9.89954 23.5252 10.8429 24.4449 11.5865 25.6783" stroke="#201F1F" stroke-width="0.694444" stroke-miterlimit="10"/>
<path d="M9.76074 23.6246C9.76074 23.6246 11.343 22.9802 11.5869 21.5727C11.8307 20.1652 9.99963 16.3513 13.1621 14.6493C15.0002 13.6602 16.7921 15.3721 16.7921 15.3721" stroke="#201F1F" stroke-width="0.694444" stroke-miterlimit="10"/>
<path d="M13.5969 26.6757L14.9278 25.9069" stroke="#201F1F" stroke-width="0.694444" stroke-miterlimit="10" stroke-linecap="round"/>
<path d="M11.8464 24.1683L12.4425 23.8116" stroke="#201F1F" stroke-width="0.694444" stroke-miterlimit="10" stroke-linecap="round"/>
<path d="M13.5178 23.1683L17.2817 20.9166" stroke="#201F1F" stroke-width="0.694444" stroke-miterlimit="10" stroke-linecap="round" stroke-dasharray="1.25 1.25"/>
<path d="M17.8196 20.5949L18.4154 20.2383" stroke="#201F1F" stroke-width="0.694444" stroke-miterlimit="10" stroke-linecap="round"/>
<path d="M23.1237 20.8995C23.072 20.929 23.0117 20.9451 22.9478 20.9437L22.2667 20.9282C22.0787 20.9237 21.9295 20.7679 21.9339 20.5798C21.9384 20.3918 22.0942 20.2426 22.2823 20.247L22.9634 20.2626C23.1514 20.267 23.3006 20.4229 23.2962 20.6109C23.2934 20.7351 23.2242 20.8423 23.1234 20.8995H23.1237Z" fill="#201F1F"/>
<path d="M21.2135 20.8559C21.1618 20.8854 21.1015 20.9015 21.0376 20.9001L19.8085 20.8717C19.6204 20.8673 19.4712 20.7115 19.4757 20.5234C19.4801 20.3354 19.636 20.1865 19.824 20.1906L21.0532 20.219C21.2412 20.2234 21.3904 20.3792 21.386 20.5673C21.3832 20.6915 21.314 20.7987 21.2132 20.8559H21.2135Z" fill="#201F1F"/>
<path d="M28.7681 8.8848C28.7201 8.42785 28.4903 8.07341 28.1034 7.86008C27.4381 7.49313 26.7273 7.67591 26.2012 8.34924L26.1945 8.35785C26.1792 8.37619 26.1645 8.39758 26.1523 8.42035L24.5287 11.3598L24.5509 3.77424C24.5509 3.76341 24.5506 3.75369 24.5498 3.74369V3.7323C24.529 2.77841 23.982 2.16647 23.0862 2.09452C22.7206 2.06535 22.392 2.15397 22.1292 2.35063C22.0756 1.91952 21.9342 1.39202 21.5784 1.03535C21.2967 0.753133 20.9176 0.620633 20.4815 0.652299C20.0734 0.682022 19.7384 0.851188 19.4853 1.1548C19.3081 1.36758 19.1778 1.64119 19.0948 1.97119C18.874 1.80397 18.6001 1.71008 18.2867 1.69897C17.5237 1.67202 17.1295 2.03452 16.9331 2.34341C16.7292 2.66397 16.7028 2.98591 16.7003 3.02147L16.6998 3.0298L16.6437 4.37897C16.4273 4.21813 16.1665 4.13174 15.8717 4.12813C15.2565 4.12063 14.7715 4.44452 14.5065 5.04063C14.322 5.45536 14.3042 5.86952 14.3037 5.88702V5.89424L14.2192 10.6837L14.8803 11.8376L14.9845 5.91119C14.9862 5.88424 15.0059 5.58563 15.1356 5.30286C15.3409 4.8548 15.6492 4.80647 15.8631 4.80924C16.052 4.81147 16.324 4.86424 16.5006 5.29258C16.6134 5.56591 16.627 5.85174 16.6284 5.8848L16.5859 11.6387L17.2673 11.6437L17.3098 5.87536C17.3098 5.86397 17.3056 5.67508 17.252 5.42813L17.2817 5.42924L17.3801 3.06563C17.3828 3.03924 17.4065 2.85758 17.5192 2.69063C17.6692 2.46841 17.9123 2.36674 18.2623 2.37897C18.569 2.3898 18.7692 2.51841 18.8931 2.78369C18.9562 2.91869 18.9831 3.0573 18.9948 3.14897C18.9978 3.20619 19.0015 3.24841 19.0037 3.27147L19.0312 10.4865L19.7126 10.484L19.6851 3.25285C19.6851 3.23813 19.6845 3.17202 19.6726 3.07452C19.6551 2.69369 19.6917 1.9698 20.0095 1.58924C20.1412 1.43147 20.3117 1.34702 20.5306 1.33119C20.7726 1.31369 20.9517 1.37202 21.0951 1.51508C21.4667 1.88647 21.4934 2.7298 21.4723 3.02341L21.4715 3.04619L21.422 11.3531L22.1034 11.3573L22.1487 3.7473C22.1603 3.58702 22.2442 3.14647 22.5034 2.92202C22.6395 2.80397 22.8123 2.75535 23.0315 2.77286C23.5734 2.81619 23.8548 3.14369 23.8678 3.74591C23.8678 3.75869 23.8684 3.7698 23.869 3.78091L23.8434 12.4173C23.8428 12.6045 23.969 12.7679 24.1501 12.8151C24.3312 12.862 24.5209 12.7804 24.6115 12.6167L26.7373 8.76785C27.0573 8.35813 27.4059 8.25313 27.7731 8.45563C28.0856 8.62813 28.1656 8.95535 28.0326 9.51647C28.0245 9.5498 28.0184 9.57591 28.0142 9.60035L27.4173 11.4129C27.3334 11.6673 27.2353 11.9284 27.1403 12.1812C26.9581 12.6654 26.7698 13.1662 26.6548 13.6851C26.5965 13.9481 26.5573 14.2092 26.5195 14.4617C26.4492 14.9306 26.3828 15.3734 26.2034 15.7973C25.9606 16.3709 25.5756 16.8701 25.1684 17.3984C25.0742 17.5204 24.977 17.6467 24.8826 17.7726C24.637 18.1004 24.4267 18.4431 24.2506 18.8026C23.8334 18.8173 22.7826 18.7751 22.1831 18.0456C21.9801 17.7984 21.7853 17.2898 21.5795 16.7517C21.2709 15.9454 20.887 14.9415 20.2417 14.1537C19.4703 13.2117 18.452 12.7484 17.2148 12.7762C16.6626 12.7887 16.1492 12.952 15.6926 13.2559L16.0317 13.8476C16.3909 13.5981 16.7917 13.4673 17.2303 13.4573C19.5698 13.4045 20.3312 15.3954 20.9431 16.9948C21.1792 17.612 21.3831 18.1451 21.6567 18.4779C22.3228 19.2887 23.3395 19.4617 23.9648 19.4842C23.7545 20.082 23.6284 20.7242 23.5834 21.4176L21.0148 21.3631L21.3506 22.0517L23.8928 22.1056C23.9945 22.1079 24.0759 22.1923 24.0745 22.294L24.0351 24.8295C24.0334 24.9312 23.9495 25.0131 23.8476 25.0123L20.6098 24.9801L19.487 25.6504L23.8409 25.694C23.9984 25.6956 24.147 25.6545 24.2753 25.5817C24.5342 25.4348 24.7115 25.1584 24.7162 24.8406L24.7556 22.3051C24.7609 21.9559 24.557 21.6506 24.2601 21.509C24.3351 20.2034 24.7092 19.1404 25.4278 18.1815C25.5195 18.0592 25.6153 17.9348 25.7081 17.8145C26.124 17.2751 26.554 16.7176 26.8312 16.0631C27.0442 15.5601 27.1203 15.0531 27.1937 14.5631C27.2298 14.3223 27.2673 14.0731 27.3203 13.8331C27.4251 13.3615 27.6048 12.8837 27.7784 12.4215C27.8759 12.1623 27.9767 11.8942 28.0648 11.6265L28.6692 9.79063C28.6776 9.7648 28.6834 9.73869 28.6867 9.7123C28.689 9.7023 28.692 9.68952 28.6956 9.67397C28.7304 9.5273 28.8028 9.2223 28.7673 8.88424L28.7681 8.8848Z" fill="#201F1F"/>
<path d="M22.6793 23.2506L21.8623 23.2442C21.8587 23.502 21.7573 23.7384 21.5898 23.9234L22.674 23.9317C22.736 23.9323 22.7943 23.9161 22.8446 23.8875C22.9471 23.8295 23.0162 23.7198 23.0173 23.5936C23.0187 23.4056 22.8673 23.2517 22.6793 23.2503V23.2506Z" fill="#201F1F"/>
</svg>
