<svg width="30" height="30" viewBox="0 0 30 30" fill="none" xmlns="http://www.w3.org/2000/svg">
<path d="M15.0385 29.2317C12.3885 29.2317 9.481 27.4433 7.26155 24.448C5.95516 22.685 5.00405 20.6589 4.511 18.588C3.97239 16.3253 4.00933 14.0719 4.61794 12.0711C4.75961 11.6053 5.12155 11.2314 5.586 11.0711C6.31933 10.818 6.79377 10.6017 7.34294 10.3511C7.55377 10.255 7.77183 10.1553 8.02183 10.0455C8.811 9.69916 9.43127 9.15027 9.72294 8.78555C10.5346 7.77055 10.4393 6.73527 10.3288 5.53694C10.2568 4.75555 10.1824 3.94777 10.351 3.0736C10.5004 2.29888 11.4904 1.84388 12.2943 1.5986C13.161 1.33416 14.2293 1.18722 15.0163 1.22388C16.156 1.27722 17.0574 1.39638 17.7713 1.58805C19.0146 1.92194 19.6763 2.4836 19.7377 3.25666C19.7882 3.89333 19.7724 4.60416 19.7571 5.29138C19.7277 6.60694 19.6974 7.96722 20.1441 8.64722C20.5188 9.21749 22.2204 10.1394 24.5849 11.0533C24.9607 11.1986 25.2527 11.5175 25.3657 11.9061C25.9735 13.995 26.0102 16.3375 25.4713 18.6803C24.9688 20.865 23.9982 22.9594 22.6643 24.7367C20.5207 27.5931 17.7413 29.2314 15.0385 29.2314V29.2317ZM14.7693 1.91305C14.0871 1.91305 13.2046 2.04694 12.4968 2.26305C11.6563 2.51944 11.0952 2.88055 11.0327 3.20555C10.8827 3.98277 10.9527 4.74083 11.0202 5.4736C11.1341 6.70888 11.2518 7.98583 10.2652 9.21972C9.90794 9.66638 9.20433 10.285 8.30072 10.6817C8.05544 10.7894 7.83961 10.8878 7.631 10.983C7.06544 11.2411 6.57711 11.4639 5.81239 11.7278C5.55766 11.8155 5.35961 12.0197 5.28239 12.2733C4.70961 14.1564 4.67655 16.2844 5.18655 18.4272C5.65794 20.4075 6.5685 22.3464 7.81933 24.0347C8.8235 25.3897 10.0085 26.5205 11.246 27.3053C12.5174 28.1114 13.8288 28.5372 15.0382 28.5372C17.5202 28.5372 20.0971 27.0003 22.1085 24.3203C23.3846 22.62 24.3132 20.6161 24.7941 18.525C25.3063 16.2972 25.2732 14.0758 24.6985 12.1003C24.6454 11.918 24.5093 11.7689 24.3341 11.7011C22.8249 11.1178 20.1982 9.99499 19.5632 9.0286C18.9977 8.16777 19.0291 6.76305 19.0621 5.27583C19.0771 4.60583 19.0927 3.91333 19.0449 3.31166C19.0091 2.86027 18.4335 2.0786 14.9832 1.91749C14.9146 1.91416 14.8429 1.91277 14.7691 1.91277L14.7693 1.91305Z" fill="#FEFEFE"/>
<path d="M15 15.9956C14.3462 15.9956 13.8142 15.4636 13.8142 14.8097C13.8142 14.1558 14.3462 13.6239 15 13.6239C15.6539 13.6239 16.1859 14.1558 16.1859 14.8097C16.1859 15.4636 15.6539 15.9956 15 15.9956ZM15 14.3183C14.7292 14.3183 14.5087 14.5386 14.5087 14.8097C14.5087 15.0808 14.7292 15.3011 15 15.3011C15.2709 15.3011 15.4914 15.0808 15.4914 14.8097C15.4914 14.5386 15.2709 14.3183 15 14.3183Z" fill="#FEFEFE"/>
<path d="M14.9911 20.2233C14.5506 20.2233 13.9617 20.1116 13.6578 19.5797C13.0445 18.5055 14.1147 16.4625 14.6034 15.6336C14.6867 15.4925 14.8342 15.4072 14.9978 15.4055C15.1617 15.4041 15.3109 15.4864 15.397 15.6258C15.5575 15.8864 15.9622 16.5741 16.2522 17.3366C16.6211 18.3072 16.667 19.0525 16.3881 19.5522C16.1395 19.9975 15.6695 20.2233 14.9914 20.2233H14.9911ZM15.0064 16.3305C14.3959 17.4536 13.9603 18.7094 14.2606 19.2353C14.302 19.3078 14.4284 19.5289 14.9909 19.5289H14.9934C15.1478 19.5289 15.6061 19.5272 15.7811 19.2139C16.0795 18.6794 15.6156 17.4094 15.0061 16.3308L15.0064 16.3305Z" fill="#FEFEFE"/>
<path d="M14.184 14.7704C14.184 14.6168 14.2332 14.4737 14.3173 14.3543C14.179 14.3432 14.0407 14.3276 13.9026 14.3065C12.5057 14.0951 11.2326 13.3957 10.119 12.2271C9.27707 11.3434 8.79735 10.4621 8.6704 10.2129L8.05151 10.5282C8.38318 11.1787 10.2182 14.4518 13.7985 14.9934C13.9451 15.0157 14.0918 15.0326 14.2387 15.0448C14.2035 14.9598 14.1837 14.8673 14.1837 14.7707L14.184 14.7704Z" fill="#FEFEFE"/>
<path d="M21.1584 10.0579C20.4023 11.534 19.3103 12.7162 18.0011 13.477C17.2484 13.9143 16.4542 14.194 15.6489 14.3106C15.7534 14.4384 15.8153 14.5976 15.8153 14.7704C15.8153 14.8481 15.8028 14.9231 15.7795 14.994C16.6611 14.862 17.5289 14.5545 18.35 14.0776C19.7748 13.2498 20.9595 11.9695 21.7764 10.3745L21.1584 10.0579Z" fill="#FEFEFE"/>
</svg>
