<svg width="30" height="30" viewBox="0 0 30 30" fill="none" xmlns="http://www.w3.org/2000/svg">
<path d="M11.9636 1.03223C11.8597 1.0039 11.7894 1.09668 11.7953 1.20418C11.9839 4.73195 14.4305 10.1114 14.9997 10.1114C15.5689 10.1114 18.0314 5.55612 18.2661 1.12779C18.27 1.05223 18.2233 0.986399 18.1494 1.00362C17.44 1.1689 14.5772 1.74779 11.9636 1.03223Z" stroke="#201F1F" stroke-width="0.694444" stroke-miterlimit="10"/>
<path d="M18.2665 1.12805L21.8843 3.31C21.8843 3.31 19.0165 19.6914 21.3029 23.7322C21.6359 24.3211 23.2346 25.1311 23.9376 25.4664C24.1309 25.5586 24.2321 25.7744 24.1796 25.9822L23.5357 28.5283C23.4921 28.7011 23.3365 28.8219 23.1584 28.8219H16.1179C15.9834 28.8219 15.8554 28.7639 15.7668 28.6631L15.2109 28.0297C15.114 27.9194 14.9434 27.915 14.8412 28.0203L14.2015 28.6792C14.1129 28.7706 13.9909 28.8219 13.8637 28.8219H6.93317C6.70844 28.8219 6.51122 28.6717 6.45178 28.455L5.78706 26.0347C5.73483 25.845 5.81706 25.6444 5.98733 25.5458C6.66483 25.1533 8.3265 24.16 8.71122 23.6425C11.1701 20.3339 8.13428 3.435 8.13428 3.435L11.7959 1.20472C11.7959 1.20472 14.5993 22.6456 14.0729 28.7731" stroke="#201F1F" stroke-width="0.694444" stroke-miterlimit="10"/>
<path d="M18.0723 2.83942C18.0723 2.83942 15.6348 20.9016 15.9764 28.8216" stroke="#201F1F" stroke-width="0.694444" stroke-miterlimit="10"/>
<path d="M15 10.1116L15.0394 27.9447" stroke="#201F1F" stroke-width="0.694444" stroke-miterlimit="10"/>
<path d="M8.33315 24.0108L5.85676 17.2314C5.77787 17.0158 5.8412 16.7739 6.01565 16.6247C6.74148 16.0044 8.62203 14.288 9.36981 12.5636" stroke="#201F1F" stroke-width="0.694444" stroke-miterlimit="10"/>
<path d="M21.6306 24.1005L24.2142 17.2891C24.2978 17.0691 24.2372 16.8202 24.062 16.6633C23.3845 16.0561 21.6903 14.4344 20.6853 12.5633" stroke="#201F1F" stroke-width="0.694444" stroke-miterlimit="10"/>
<path d="M8.32021 4.53555C8.32021 4.53555 8.09993 4.34611 7.82854 4.53555C7.55715 4.725 6.84409 5.79416 7.18354 6.1675C7.52298 6.54083 8.5977 6.31444 8.5977 6.31444" stroke="#201F1F" stroke-width="0.694444" stroke-miterlimit="10"/>
<path d="M21.7326 4.53555C21.7326 4.53555 21.9529 4.34611 22.2242 4.53555C22.4956 4.725 23.2087 5.79416 22.8692 6.1675C22.5298 6.54083 21.4551 6.31444 21.4551 6.31444" stroke="#201F1F" stroke-width="0.694444" stroke-miterlimit="10"/>
</svg>
