<svg width="30" height="30" viewBox="0 0 30 30" fill="none" xmlns="http://www.w3.org/2000/svg">
<path d="M16.3311 3.48948C15.9311 3.49421 15.6083 3.81726 15.6039 4.21726C15.5778 6.66143 15.4892 14.5017 15.4269 14.617C14.578 16.1839 10.3058 23.5214 10.3058 23.5214C10.3058 23.5214 8.48444 26.5706 10.8872 28.4164C13.2661 30.2439 15.2186 28.6364 15.523 28.3603C15.548 28.3375 15.5711 28.3134 15.5928 28.2873L23.5933 18.677C23.5933 18.677 24.4125 17.7353 24.4239 16.2317C24.433 15.0287 23.8678 14.2992 23.5417 13.9789C23.3978 13.8375 23.32 13.6423 23.3244 13.4403L23.5305 4.16643C23.5397 3.75059 23.2025 3.40948 22.7864 3.41448L16.3314 3.48948H16.3311Z" stroke="#FEFEFE" stroke-width="0.694444" stroke-miterlimit="10"/>
<path d="M15.5325 5.4425L23.4958 5.34778" stroke="#FEFEFE" stroke-width="0.694444" stroke-miterlimit="10"/>
<path d="M23.3164 13.7865C23.3164 13.7865 21.1841 14.4159 20.3041 17.5143C19.5772 20.074 21.0311 21.7804 21.0311 21.7804" stroke="#FEFEFE" stroke-width="0.694444" stroke-miterlimit="10"/>
<path d="M9.33608 27.5848C8.72052 27.5848 8.00636 27.385 7.23941 26.7962C6.35636 26.1178 5.99858 25.1787 6.17636 24.0048C6.31525 23.0862 6.74052 22.3614 6.74469 22.3545L6.74663 22.3512C6.78941 22.2778 11.0316 14.9912 11.873 13.4373C11.9241 13.3428 11.9347 13.3234 11.9652 11.9498C11.9811 11.2331 11.9986 10.2242 12.0172 8.9506C12.0397 7.41365 12.0597 5.75338 12.0747 4.44004L15.6855 4.39699L15.703 3.70226L12.0822 3.74532C12.0858 3.4181 12.0891 3.12476 12.0916 2.87588C12.0939 2.66643 12.2661 2.49393 12.4755 2.49171L18.9305 2.41671C18.9322 2.41671 18.9336 2.41671 18.9352 2.41671C19.0397 2.41671 19.1377 2.45754 19.2114 2.53199C19.2861 2.60754 19.3258 2.70754 19.3236 2.81393L19.3075 3.5431L20.0027 3.51226L20.018 2.82921C20.0247 2.5331 19.9136 2.25393 19.7052 2.04337C19.4969 1.83282 19.2202 1.71838 18.9227 1.72226L12.4677 1.79726C11.8839 1.80393 11.4039 2.28449 11.3975 2.86838C11.3347 8.74421 11.2719 12.6398 11.2322 13.162C10.3327 14.8103 6.22441 21.8675 6.14719 22C6.11441 22.0553 5.65413 22.8459 5.49302 23.8778C5.26941 25.3103 5.72691 26.5098 6.81636 27.3464C7.74774 28.062 8.62108 28.2775 9.33497 28.2775C9.66302 28.2775 9.95775 28.232 10.2086 28.1687L10.0555 27.4928C9.83524 27.5492 9.59441 27.5845 9.3358 27.5845L9.33608 27.5848Z" fill="#FEFEFE"/>
</svg>
