<svg width="30" height="30" viewBox="0 0 30 30" fill="none" xmlns="http://www.w3.org/2000/svg">
<path d="M14.6151 8.08443C14.6151 8.08443 14.2276 12.348 12.9706 16.728C12.1684 19.5233 12.6829 25.1697 12.1695 28.6311H9.27148C9.21037 27.7883 8.66981 23.4428 8.87231 21.0664C9.07759 18.6597 9.43537 16.8478 9.43926 14.4267C9.44314 11.9075 8.99926 9.41055 9.02703 6.89055C9.0312 6.50693 9.22259 1.84443 9.46787 1.81805C9.46898 1.81805 14.5773 1.26943 19.7309 1.81805" stroke="#FEFEFE" stroke-width="0.694444" stroke-miterlimit="10"/>
<path d="M13.8472 13.093C13.8472 13.093 12.0358 14.093 11.5583 15C11.0808 15.9069 11.5583 18.1355 11.1205 20.8022C10.6827 23.4689 12.4491 23.2711 12.4491 23.2711" stroke="#FEFEFE" stroke-width="0.694444" stroke-miterlimit="10"/>
<path d="M14.6639 8.08443C14.6639 8.08443 15.0514 12.348 16.3084 16.728C17.1106 19.5233 16.5962 25.1697 17.1095 28.6311H20.0075C20.0687 27.7883 20.6092 23.4428 20.4067 21.0664C20.2014 18.6597 19.8437 16.8478 19.8398 14.4267C19.8359 11.9075 20.2798 9.41055 20.252 6.89055C20.2478 6.50693 20.0564 1.84443 19.8112 1.81805C19.81 1.81805 14.7017 1.26943 9.5481 1.81805" stroke="#FEFEFE" stroke-width="0.694444" stroke-miterlimit="10"/>
<path d="M15.4316 13.093C15.4316 13.093 17.243 14.093 17.7205 15C18.198 15.9069 17.7205 18.1355 18.1583 20.8022C18.5961 23.4689 16.8297 23.2711 16.8297 23.2711" stroke="#FEFEFE" stroke-width="0.694444" stroke-miterlimit="10"/>
<path d="M9.26758 3.16313C9.26758 3.16313 14.9448 2.51924 20.0115 3.16313" stroke="#FEFEFE" stroke-width="0.694444" stroke-miterlimit="10"/>
</svg>
