<svg width="30" height="30" viewBox="0 0 30 30" fill="none" xmlns="http://www.w3.org/2000/svg">
<path d="M15.2994 5.40884C15.7947 6.77606 17.3308 21.1922 17.2505 21.5372C17.1702 21.8822 15.9247 24.5247 15.2005 24.9236C14.4763 25.3224 10.3383 27.1288 9.87051 27.4374C9.40273 27.7461 9.24023 28.3074 9.32968 28.5208C9.41912 28.7341 11.848 29.4794 13.8563 29.4158C15.1019 29.3763 18.8525 28.5594 18.8525 28.5594L18.8652 29.3327C18.8652 29.3327 22.0791 29.2358 22.3841 29.1508C22.3841 29.1508 22.3725 27.6324 22.3636 26.653C22.3561 25.7924 21.7347 22.4083 21.683 21.8936C21.6316 21.3786 23.0375 15.2061 22.5283 10.4008C22.1222 6.56828 21.5063 3.90022 21.5063 3.90022C21.5063 3.90022 20.9452 3.76522 20.3302 2.95856C19.7152 2.15217 18.2741 0.773002 16.2244 1.49522C15.4458 1.76967 15.2991 5.40856 15.2991 5.40856L15.2994 5.40884Z" stroke="#201F1F" stroke-width="0.416667" stroke-miterlimit="10"/>
<path d="M15.5032 6.07984L16.381 5.91207C16.381 5.91207 16.0615 2.72707 17.3657 2.70484C18.9612 2.6779 18.9693 4.8104 20.1437 5.2254C21.3182 5.6404 21.8485 5.59262 21.8485 5.59262" stroke="#201F1F" stroke-width="0.333333" stroke-miterlimit="10"/>
<path d="M9.44897 27.8969C9.09425 27.811 12.517 28.721 13.7998 28.6213C15.0826 28.5216 17.8356 27.4716 18.4801 27.3141C19.1245 27.1563 22.4159 27.0107 22.4159 27.0107" stroke="#201F1F" stroke-width="0.333333" stroke-miterlimit="10"/>
<path d="M18.8528 28.5593L18.8622 27.369" stroke="#201F1F" stroke-width="0.416667" stroke-miterlimit="10"/>
<path d="M14.0548 25.4655C14.0548 25.4655 12.1726 26.3049 13.7996 28.6213" stroke="#201F1F" stroke-width="0.333333" stroke-miterlimit="10"/>
<path d="M14.6516 25.1924L14.9719 26.3296L16.4322 26.3054C16.4322 26.3054 17.3044 23.7015 18.7586 22.8807L18.9102 20.0232L17.1438 20.0524" stroke="#201F1F" stroke-width="0.333333" stroke-miterlimit="10"/>
<path d="M17.0758 19.6488C17.0588 19.7555 17.0424 19.8577 17.0266 19.9549C16.8919 20.7941 16.8377 21.1405 16.8524 21.2863C16.8644 21.4063 16.9049 21.668 16.9611 22.0155L17.2505 21.5374L17.0758 19.6488Z" fill="#201F1F"/>
<path d="M9.29992 28.5085C7.46853 28.5671 5.32298 27.931 5.00798 27.7218C5.00048 27.6616 5.01798 27.5491 5.07103 27.4213C5.1502 27.4413 5.25242 27.466 5.3852 27.4979C5.66631 27.566 6.10492 27.6682 6.5977 27.7696C7.72104 28.0004 8.55881 28.1127 9.09326 28.1038C9.15381 28.1027 9.21048 28.1002 9.26298 28.096C9.34826 28.0893 9.43965 28.0785 9.53631 28.0643L9.73437 27.6927C9.58992 27.7202 9.45437 27.7416 9.33159 27.7549C8.83992 27.0291 8.66409 26.3921 8.80909 25.861C8.90187 25.5213 9.11381 25.286 9.29076 25.1404C9.54881 25.0218 9.78853 24.911 9.99909 24.8121L10.2852 25.8288L11.8602 25.8027L11.978 25.8007L12.0155 25.6891C12.0238 25.6638 12.8763 23.1607 14.2438 22.3888L14.3235 22.3438L14.488 19.2435L12.756 19.2721C12.7335 19.0321 12.7069 18.7574 12.6758 18.4421C12.5291 16.9582 12.3274 15.0768 12.1224 13.2807C11.9127 11.4432 11.4541 7.55655 11.1271 5.73489L11.9874 5.57044L11.9721 5.41878C11.9135 4.83322 11.8727 3.1885 12.3794 2.61905C12.493 2.49128 12.6255 2.42794 12.7846 2.42516H12.7852C13.5841 2.41183 13.9358 3.01933 14.308 3.66211C14.5877 4.14516 14.8763 4.6435 15.3702 4.86878L15.4169 4.51766C15.0716 4.31516 14.8396 3.91544 14.5966 3.49516C14.2113 2.82961 13.7746 2.07544 12.7799 2.09211H12.7791C12.5252 2.09655 12.3069 2.19933 12.1305 2.39794C11.828 2.73822 11.6544 3.35989 11.6144 4.24572C11.5941 4.6935 11.6138 5.09183 11.6285 5.29989L11.0658 5.40739C11.0221 5.19016 10.9819 5.01905 10.9455 4.90683C10.9541 4.72627 10.9966 3.93405 11.1113 3.12683C11.3471 1.4685 11.661 1.27822 11.7213 1.25683C12.5538 0.963497 13.3621 1.01239 14.1235 1.40266C14.7871 1.74266 15.2674 2.26128 15.5535 2.63628C15.586 2.67878 15.6185 2.71961 15.6508 2.75877L15.7266 2.18628C15.4069 1.80544 14.9349 1.35016 14.3135 1.03183C13.4463 0.587386 12.5277 0.530997 11.583 0.863775C11.3249 0.954608 10.9524 1.28239 10.6985 3.071C10.5658 4.00572 10.528 4.91905 10.5274 4.92822L10.5258 4.96905L10.5396 5.00766C11.0199 6.33294 12.4963 20.2168 12.463 20.8754C12.3621 21.2604 11.1499 23.7471 10.5371 24.0846C10.2149 24.2621 9.14242 24.7513 8.1052 25.2243C6.76937 25.8335 5.5077 26.4091 5.24354 26.5832C5.00659 26.7396 4.82881 26.9616 4.71881 27.1885L4.71687 27.191V27.1916C4.58909 27.4579 4.55465 27.7307 4.6302 27.911C4.66548 27.9952 4.73937 28.0918 5.20937 28.2627C5.50409 28.3699 5.8927 28.4824 6.30381 28.5793C6.91965 28.7246 8.12965 28.9624 9.31298 28.9252C9.53909 28.9179 9.84409 28.886 10.1919 28.8385L9.29965 28.5088L9.29992 28.5085ZM10.7385 24.4496C11.0841 24.2593 11.5338 23.6604 12.0752 22.6699C12.4721 21.9435 12.823 21.1679 12.8716 20.9599C12.8813 20.9177 12.8996 20.8391 12.7874 19.6049L14.1369 19.5827L14.0008 22.1454C12.7249 22.9296 11.923 24.9649 11.7391 25.4713L10.5369 25.4913L10.3049 24.6674C10.4946 24.5763 10.6438 24.5018 10.7383 24.4499L10.7385 24.4496ZM5.47326 26.931C5.71048 26.7746 7.07465 26.1524 8.27853 25.6032C8.39131 25.5518 8.50326 25.5007 8.61381 25.4502C8.56437 25.5463 8.52159 25.6518 8.48965 25.7677C8.32798 26.3532 8.48131 27.0257 8.94492 27.7696C7.88826 27.746 5.98659 27.3074 5.25465 27.1238C5.31465 27.0541 5.38687 26.9877 5.47354 26.9307L5.47326 26.931Z" fill="#201F1F"/>
</svg>
