<svg width="30" height="30" viewBox="0 0 30 30" fill="none" xmlns="http://www.w3.org/2000/svg">
<path d="M14.9927 8.91748L12.5532 1.21304C12.5255 1.12581 12.4252 1.08526 12.3446 1.12887L10.6207 2.06526C10.5405 2.10887 10.5163 2.21304 10.5691 2.28776L12.958 5.65054C13.0099 5.72359 12.9943 5.82498 12.9227 5.87915L12.2366 6.39804C12.1285 6.4797 12.1263 6.64137 12.2321 6.72581L14.981 8.92526C14.9866 8.9297 14.9946 8.92415 14.9924 8.91748H14.9927Z" stroke="#FEFEFE" stroke-width="0.694444" stroke-miterlimit="10"/>
<path d="M17.4551 1.2275L15.044 8.8025C15.0307 8.84417 15.0793 8.87806 15.114 8.85111L17.7873 6.75361C17.8671 6.69111 17.8718 6.57194 17.7971 6.50333L17.1301 5.89056C17.0629 5.82889 17.0529 5.72639 17.1065 5.6525L19.5012 2.37444C19.5507 2.30667 19.5304 2.21111 19.4579 2.16917L17.6793 1.14056C17.594 1.09111 17.4848 1.13333 17.4551 1.22722V1.2275Z" stroke="#FEFEFE" stroke-width="0.694444" stroke-miterlimit="10"/>
<path d="M12.5532 1.21305C12.5532 1.21305 14.8049 1.94777 17.4827 1.17194" stroke="#FEFEFE" stroke-width="0.694444" stroke-miterlimit="10"/>
<path d="M10.7984 2.61005L8.95781 3.62671C8.72308 3.75644 8.56531 3.99088 8.53336 4.25699L6.70058 19.5192C6.66975 19.7767 6.84225 20.0142 7.09669 20.0645L9.01864 20.4434" stroke="#FEFEFE" stroke-width="0.694444" stroke-miterlimit="10"/>
<path d="M19.2312 2.74414L21.0918 3.75858C21.2543 3.8472 21.3631 4.0097 21.3829 4.19386L23.0329 19.5203C23.0645 19.8144 22.8637 20.0833 22.5726 20.1361L20.8834 20.4433" stroke="#FEFEFE" stroke-width="0.694444" stroke-miterlimit="10"/>
<path d="M9.33505 7.50275C9.33505 7.50275 10.7237 13.3125 10.1389 16.1261C9.63783 18.5372 8.09033 24.5716 7.65783 26.248C7.58977 26.5122 7.70477 26.7891 7.94005 26.9272C8.87394 27.475 11.3098 28.7789 13.61 28.9514L14.9931 28.1358L16.247 28.9514C18.5473 28.7789 20.9831 27.475 21.917 26.9272C22.1523 26.7891 22.2676 26.5122 22.1992 26.248C21.767 24.5716 20.2192 18.5375 19.7181 16.1261C19.1334 13.3125 20.522 7.50275 20.522 7.50275" stroke="#FEFEFE" stroke-width="0.694444" stroke-miterlimit="10"/>
<path d="M10.26 15.1778C10.26 15.1778 14.612 17.4261 19.5281 15.1778" stroke="#FEFEFE" stroke-width="0.694444" stroke-miterlimit="10"/>
<path d="M10.031 16.6283C10.031 16.6283 14.5768 19.005 19.826 16.6283" stroke="#FEFEFE" stroke-width="0.694444" stroke-miterlimit="10"/>
<path d="M14.9815 8.92529L14.9287 16.177" stroke="#FEFEFE" stroke-width="0.694444" stroke-miterlimit="10"/>
</svg>
