<svg width="30" height="30" viewBox="0 0 30 30" fill="none" xmlns="http://www.w3.org/2000/svg">
<path d="M15.3992 5.65809C15.3992 5.65809 20.4028 4.47282 20.637 3.86615C20.8711 3.25948 20.7059 1.71587 19.5756 1.88143C18.4453 2.04698 15.3992 5.43754 15.3992 5.43754C15.3992 5.43754 12.8159 1.87976 11.3606 1.86893C10.1764 1.86032 10.1189 3.63976 10.3131 3.86615C11.2228 4.92754 15.3992 5.65809 15.3992 5.65809Z" stroke="#FEFEFE" stroke-width="0.694444" stroke-miterlimit="10"/>
<path d="M11.9102 2.00635C11.9102 2.00635 13.8802 2.72996 15.4782 2.65079C17.0763 2.57163 19.0888 2.07163 19.0888 2.07163" stroke="#FEFEFE" stroke-width="0.694444" stroke-miterlimit="10"/>
<path d="M10.3128 3.86609C10.3128 3.86609 8.52332 5.02109 7.13943 6.69859C6.00999 8.06776 3.88832 21.2483 4.4011 22.7653C4.66332 23.5408 7.58443 24.0186 7.58443 24.0186" stroke="#FEFEFE" stroke-width="0.694444" stroke-miterlimit="10"/>
<path d="M7.1394 6.69861L8.9744 9.31778C8.9744 9.31778 7.96607 17.1614 7.77913 20.8589C7.59218 24.5564 7.77913 27.2283 7.77913 27.2283C7.77913 27.2283 15.4839 30.3328 23.1511 27.2406C23.1511 27.2406 23.3377 24.5686 23.1511 20.8711C22.9644 17.1736 21.9558 9.33 21.9558 9.33L23.7908 6.71083" stroke="#FEFEFE" stroke-width="0.694444" stroke-miterlimit="10"/>
<path d="M5.45947 12.9384L8.31031 14.9272C8.31031 14.9272 14.2867 18.1567 22.6206 14.9395L25.4714 12.9506" stroke="#FEFEFE" stroke-width="0.694444" stroke-miterlimit="10"/>
<path d="M4.55615 18.8583L7.8131 20.2763C7.8131 20.2763 15.0098 22.7547 23.1175 20.2886L26.3745 18.8705" stroke="#FEFEFE" stroke-width="0.694444" stroke-miterlimit="10"/>
<path d="M20.6177 3.8783C20.6177 3.8783 22.4071 5.0333 23.791 6.7108C24.9205 8.07996 27.0421 21.2605 26.5293 22.7775C26.2671 23.553 23.346 24.0308 23.346 24.0308" stroke="#FEFEFE" stroke-width="0.694444" stroke-miterlimit="10"/>
<path d="M15.3992 5.65808V28.515" stroke="#FEFEFE" stroke-width="0.694444" stroke-miterlimit="10"/>
<path d="M8.97437 9.3175C8.97437 9.3175 14.6299 11.7269 21.956 9.32973" stroke="#FEFEFE" stroke-width="0.694444" stroke-miterlimit="10"/>
<path d="M13.3781 22.9575C13.3781 22.9575 12.6281 24.7167 10.4651 26.2742" stroke="#FEFEFE" stroke-width="0.694444" stroke-miterlimit="10" stroke-linecap="round"/>
<path d="M17.4734 22.9575C17.4734 22.9575 18.8867 25.4089 20.4439 26.2742" stroke="#FEFEFE" stroke-width="0.694444" stroke-miterlimit="10" stroke-linecap="round"/>
</svg>
