<svg width="30" height="30" viewBox="0 0 30 30" fill="none" xmlns="http://www.w3.org/2000/svg">
<path d="M11.4187 1.33057C11.897 1.66612 13.0079 2.34584 14.5656 2.43084C16.4284 2.53223 17.7818 1.72001 18.2537 1.40501" stroke="#201F1F" stroke-width="0.694444" stroke-miterlimit="10"/>
<path d="M6.72757 7.84747L7.17952 17.76C7.21257 18.483 7.20896 19.2075 7.16896 19.9303L6.72729 27.9214C6.72729 28.355 7.07868 28.7064 7.5123 28.7064H22.2226C22.6562 28.7064 23.0076 28.355 23.0076 27.9214L22.5453 19.55C22.5142 18.9853 22.5117 18.4197 22.5384 17.8547L23.0079 7.84747" stroke="#201F1F" stroke-width="0.694444" stroke-miterlimit="10" stroke-linecap="round"/>
<path d="M7.02574 14.3916L2.80074 13.483C2.36824 13.39 2.12629 12.9269 2.29712 12.5186L5.99824 3.68051C6.08796 3.46607 6.27768 3.3094 6.50546 3.2619C8.29046 2.88829 9.95907 2.12135 11.3599 1.3469C11.4027 1.32329 11.456 1.3469 11.4668 1.3944C11.8441 3.05135 13.2824 4.22857 14.9091 4.20551C16.4932 4.18301 17.8721 3.02802 18.2499 1.42163C18.2549 1.39996 18.2791 1.38885 18.2985 1.39968C19.6466 2.14718 21.2452 2.89024 22.9582 3.2819C23.3307 3.36718 23.6371 3.63107 23.7818 3.98468L27.2977 12.5858C27.4677 13.0016 27.2177 13.4694 26.7774 13.5591L22.7007 14.39" stroke="#201F1F" stroke-width="0.694444" stroke-miterlimit="10"/>
</svg>
