<svg width="30" height="30" viewBox="0 0 30 30" fill="none" xmlns="http://www.w3.org/2000/svg">
<path d="M11.3402 1.51889L15.3188 6.18084C15.3849 6.25806 15.5044 6.25778 15.5699 6.18L19.5011 1.50834C19.5277 1.47667 19.5716 1.46584 19.6102 1.48139C20.4174 1.80834 20.9458 2.59222 20.9458 3.46334C20.9458 3.49139 20.9302 3.51695 20.9052 3.52945L15.4447 6.32889L13.963 5.56945L9.94522 3.51C9.92828 3.50139 9.91772 3.48417 9.91772 3.465C9.91772 2.60861 10.4241 1.83306 11.2086 1.48917C11.2541 1.46917 11.3077 1.48139 11.3399 1.51917L11.3402 1.51889Z" stroke="#FEFEFE" stroke-width="0.694444" stroke-miterlimit="10"/>
<path d="M13.3507 11.3406C13.3507 11.3406 13.2646 10.1281 13.4865 8.35171C13.6557 6.99949 13.9637 5.56921 13.9637 5.56921" stroke="#FEFEFE" stroke-width="0.694444" stroke-miterlimit="10" stroke-linecap="round"/>
<path d="M17.5349 11.3406C17.5349 11.3406 17.621 10.1281 17.3991 8.35171C17.2299 6.99949 16.9219 5.56921 16.9219 5.56921" stroke="#FEFEFE" stroke-width="0.694444" stroke-miterlimit="10" stroke-linecap="round"/>
<path d="M11.6104 1.83525C14.0454 3.10913 16.6187 3.18552 19.2262 1.83525L19.5015 1.5083" stroke="#FEFEFE" stroke-width="0.694444" stroke-miterlimit="10"/>
<path d="M10.2739 3.6781L8.45449 4.57782C8.12838 4.73921 7.9556 5.05893 7.76726 5.37032C6.48254 7.49366 4.71171 16.7912 4.7831 21.6564C4.79588 22.5189 8.41532 22.8562 8.41532 22.8562" stroke="#FEFEFE" stroke-width="0.694444" stroke-miterlimit="10"/>
<path d="M8.17643 4.78271C8.17643 4.78271 8.98338 10.1333 8.83282 13.413C8.70004 16.3069 8.16921 24.4947 8.04588 26.3816C8.03116 26.6058 8.1881 26.8044 8.40949 26.8416C9.45366 27.0183 12.4409 27.4697 15.4431 27.4191C18.3984 27.3691 21.3384 26.9913 22.4253 26.8374C22.6734 26.8024 22.8523 26.5819 22.8362 26.3319C22.7073 24.3555 22.1842 16.2822 22.0525 13.413C21.902 10.1333 22.7089 4.78271 22.7089 4.78271" stroke="#FEFEFE" stroke-width="0.694444" stroke-miterlimit="10"/>
<path d="M5.28979 22.1766V22.9694C5.28979 23.1483 5.42007 23.3008 5.59674 23.3289L8.21646 23.7425" stroke="#FEFEFE" stroke-width="0.694444" stroke-miterlimit="10"/>
<path d="M20.6116 3.6781L22.431 4.57782C22.7571 4.73921 22.9299 5.05893 23.1182 5.37032C24.403 7.49366 26.1738 16.7912 26.1024 21.6564C26.0896 22.5189 22.4702 22.8562 22.4702 22.8562" stroke="#FEFEFE" stroke-width="0.694444" stroke-miterlimit="10"/>
<path d="M25.5959 22.1766V22.9694C25.5959 23.1483 25.4656 23.3008 25.2889 23.3289L22.6692 23.7425" stroke="#FEFEFE" stroke-width="0.694444" stroke-miterlimit="10"/>
<path d="M12.9098 19.6947H17.9773C17.9773 19.6947 18.1862 20.5828 19.022 21.3664C19.8578 22.15 20.4064 22.3328 20.4064 22.3328L20.6937 25.65H10.1931L10.5326 22.4372C10.5326 22.4372 11.3601 21.9245 11.9442 21.2992C12.6145 20.5822 12.9095 19.6945 12.9095 19.6945L12.9098 19.6947Z" stroke="#FEFEFE" stroke-width="0.694444" stroke-miterlimit="10"/>
<path d="M8.73193 26.8944L8.86804 27.9039C8.89693 28.118 9.0686 28.2847 9.2836 28.3075C10.3539 28.4202 13.5205 28.7339 15.4428 28.708C17.3494 28.6825 20.4367 28.4272 21.515 28.3336C21.7453 28.3136 21.9358 28.1466 21.9861 27.9214L22.2158 26.8947" stroke="#FEFEFE" stroke-width="0.694444" stroke-miterlimit="10"/>
<path d="M15.4412 19.6947V25.6503" stroke="#FEFEFE" stroke-width="0.694444" stroke-miterlimit="10"/>
</svg>
